<?xml version="1.0" encoding="utf-8"?>
<!-- Generator: Adobe Illustrator 26.0.0, SVG Export Plug-In . SVG Version: 6.00 Build 0)  -->
<svg version="1.1" id="Layer_1" xmlns="http://www.w3.org/2000/svg" xmlns:xlink="http://www.w3.org/1999/xlink" x="0px" y="0px"
	 viewBox="0 0 40 40" style="enable-background:new 0 0 40 40;" xml:space="preserve">
<style type="text/css">
	.st0{fill:#0288D1;}
	.st1{fill:#FFFFFF;}
</style>
<path class="st0" d="M40,34.44c0,3.07-2.49,5.56-5.56,5.56H5.56C2.49,40,0,37.51,0,34.44V5.56C0,2.49,2.49,0,5.56,0h28.89
	C37.51,0,40,2.49,40,5.56V34.44z"/>
<path class="st1" d="M6.67,14.44h5.56v18.89H6.67V14.44z M9.43,12.22H9.4c-1.66,0-2.73-1.24-2.73-2.78c0-1.58,1.11-2.78,2.79-2.78
	c1.69,0,2.73,1.2,2.76,2.78C12.22,10.99,11.15,12.22,9.43,12.22z M33.33,33.33h-5.56V23.22c0-2.44-1.36-4.11-3.55-4.11
	c-1.67,0-2.57,1.12-3.01,2.21c-0.16,0.39-0.11,1.46-0.11,2.01v10h-5.56V14.44h5.56v2.91c0.8-1.24,2.06-2.91,5.26-2.91
	c3.98,0,6.96,2.5,6.96,8.08L33.33,33.33L33.33,33.33z"/>
</svg>
