<svg width="535" height="346" viewBox="0 0 535 346" fill="none" xmlns="http://www.w3.org/2000/svg">
<path fill-rule="evenodd" clip-rule="evenodd" d="M286.59 0.570068C409.47 0.570068 509.08 100.18 509.08 223.06C509.08 268.21 495.62 310.21 472.51 345.29H100.67C77.56 310.21 64.1 268.21 64.1 223.06C64.1 100.18 163.71 0.570068 286.59 0.570068Z" fill="#ABBBDC"/>
<path fill-rule="evenodd" clip-rule="evenodd" d="M279.06 88.6301C284.08 88.6301 289.1 88.6301 294.12 88.6301C294.12 91.6601 294.12 94.6901 294.12 97.7301C289.1 97.7301 284.08 97.7301 279.06 97.7301C279.06 94.7001 279.06 91.6601 279.06 88.6301ZM316.39 75.1701C321.41 75.1701 326.43 75.1701 331.45 75.1701C331.45 78.2001 331.45 81.2301 331.45 84.2701C326.43 84.2701 321.41 84.2701 316.39 84.2701C316.39 81.2401 316.39 78.2001 316.39 75.1701ZM335.06 75.1701C340.08 75.1701 345.1 75.1701 350.12 75.1701C350.12 78.2001 350.12 81.2301 350.12 84.2701C345.1 84.2701 340.08 84.2701 335.06 84.2701C335.06 81.2401 335.06 78.2001 335.06 75.1701ZM353.73 75.1701C358.75 75.1701 363.77 75.1701 368.79 75.1701C368.79 78.2001 368.79 81.2301 368.79 84.2701C363.77 84.2701 358.75 84.2701 353.73 84.2701C353.73 81.2401 353.73 78.2001 353.73 75.1701ZM372.39 75.1701H387.45V84.2701H372.39V75.1701ZM279.06 102.09C284.08 102.09 289.1 102.09 294.12 102.09C294.12 105.12 294.12 108.15 294.12 111.19C289.1 111.19 284.08 111.19 279.06 111.19C279.06 108.16 279.06 105.12 279.06 102.09ZM279.06 115.55C284.08 115.55 289.1 115.55 294.12 115.55C294.12 118.58 294.12 121.61 294.12 124.65C289.1 124.65 284.08 124.65 279.06 124.65C279.06 121.61 279.06 118.58 279.06 115.55ZM279.06 129.01C284.08 129.01 289.1 129.01 294.12 129.01C294.12 132.04 294.12 135.07 294.12 138.11C289.1 138.11 284.08 138.11 279.06 138.11C279.06 135.08 279.06 132.04 279.06 129.01ZM260.39 129.01H275.45V138.11H260.39V129.01ZM297.73 129.01C302.75 129.01 307.77 129.01 312.79 129.01C312.79 132.04 312.79 135.07 312.79 138.11C307.77 138.11 302.75 138.11 297.73 138.11C297.73 135.08 297.73 132.04 297.73 129.01ZM316.39 129.01C321.41 129.01 326.43 129.01 331.45 129.01C331.45 132.04 331.45 135.07 331.45 138.11C326.43 138.11 321.41 138.11 316.39 138.11C316.39 135.08 316.39 132.04 316.39 129.01ZM335.06 129.01C340.08 129.01 345.1 129.01 350.12 129.01C350.12 132.04 350.12 135.07 350.12 138.11C345.1 138.11 340.08 138.11 335.06 138.11C335.06 135.08 335.06 132.04 335.06 129.01ZM260.39 115.55C265.41 115.55 270.43 115.55 275.45 115.55C275.45 118.58 275.45 121.61 275.45 124.65C270.43 124.65 265.41 124.65 260.39 124.65C260.39 121.61 260.39 118.58 260.39 115.55ZM297.73 115.55C302.75 115.55 307.77 115.55 312.79 115.55C312.79 118.58 312.79 121.61 312.79 124.65C307.77 124.65 302.75 124.65 297.73 124.65C297.73 121.61 297.73 118.58 297.73 115.55ZM316.39 115.55C321.41 115.55 326.43 115.55 331.45 115.55C331.45 118.58 331.45 121.61 331.45 124.65C326.43 124.65 321.41 124.65 316.39 124.65C316.39 121.61 316.39 118.58 316.39 115.55ZM335.06 115.55C340.08 115.55 345.1 115.55 350.12 115.55C350.12 118.58 350.12 121.61 350.12 124.65C345.1 124.65 340.08 124.65 335.06 124.65C335.06 121.61 335.06 118.58 335.06 115.55ZM353.73 115.55C358.75 115.55 363.77 115.55 368.79 115.55C368.79 118.58 368.79 121.61 368.79 124.65C363.77 124.65 358.75 124.65 353.73 124.65C353.73 121.61 353.73 118.58 353.73 115.55ZM372.39 115.55C377.41 115.55 382.43 115.55 387.45 115.55C387.45 118.58 387.45 121.61 387.45 124.65C382.43 124.65 377.41 124.65 372.39 124.65C372.39 121.61 372.39 118.58 372.39 115.55ZM260.39 102.09C265.41 102.09 270.43 102.09 275.45 102.09C275.45 105.12 275.45 108.15 275.45 111.19C270.43 111.19 265.41 111.19 260.39 111.19C260.39 108.16 260.39 105.12 260.39 102.09ZM297.73 102.09C302.75 102.09 307.77 102.09 312.79 102.09C312.79 105.12 312.79 108.15 312.79 111.19C307.77 111.19 302.75 111.19 297.73 111.19C297.73 108.16 297.73 105.12 297.73 102.09ZM316.39 102.09C321.41 102.09 326.43 102.09 331.45 102.09C331.45 105.12 331.45 108.15 331.45 111.19C326.43 111.19 321.41 111.19 316.39 111.19C316.39 108.16 316.39 105.12 316.39 102.09ZM335.06 102.09C340.08 102.09 345.1 102.09 350.12 102.09C350.12 105.12 350.12 108.15 350.12 111.19C345.1 111.19 340.08 111.19 335.06 111.19C335.06 108.16 335.06 105.12 335.06 102.09ZM353.73 102.09C358.75 102.09 363.77 102.09 368.79 102.09C368.79 105.12 368.79 108.15 368.79 111.19C363.77 111.19 358.75 111.19 353.73 111.19C353.73 108.16 353.73 105.12 353.73 102.09ZM372.39 102.09C377.41 102.09 382.43 102.09 387.45 102.09C387.45 105.12 387.45 108.15 387.45 111.19C382.43 111.19 377.41 111.19 372.39 111.19C372.39 108.16 372.39 105.12 372.39 102.09ZM260.39 88.6301C265.41 88.6301 270.43 88.6301 275.45 88.6301C275.45 91.6601 275.45 94.6901 275.45 97.7301C270.43 97.7301 265.41 97.7301 260.39 97.7301C260.39 94.7001 260.39 91.6601 260.39 88.6301ZM297.73 88.6301C302.75 88.6301 307.77 88.6301 312.79 88.6301C312.79 91.6601 312.79 94.6901 312.79 97.7301C307.77 97.7301 302.75 97.7301 297.73 97.7301C297.73 94.7001 297.73 91.6601 297.73 88.6301ZM316.39 88.6301C321.41 88.6301 326.43 88.6301 331.45 88.6301C331.45 91.6601 331.45 94.6901 331.45 97.7301C326.43 97.7301 321.41 97.7301 316.39 97.7301C316.39 94.7001 316.39 91.6601 316.39 88.6301ZM335.06 88.6301C340.08 88.6301 345.1 88.6301 350.12 88.6301C350.12 91.6601 350.12 94.6901 350.12 97.7301C345.1 97.7301 340.08 97.7301 335.06 97.7301C335.06 94.7001 335.06 91.6601 335.06 88.6301ZM353.73 88.6301C358.75 88.6301 363.77 88.6301 368.79 88.6301C368.79 91.6601 368.79 94.6901 368.79 97.7301C363.77 97.7301 358.75 97.7301 353.73 97.7301C353.73 94.7001 353.73 91.6601 353.73 88.6301ZM372.39 88.6301C377.41 88.6301 382.43 88.6301 387.45 88.6301C387.45 91.6601 387.45 94.6901 387.45 97.7301C382.43 97.7301 377.41 97.7301 372.39 97.7301C372.39 94.7001 372.39 91.6601 372.39 88.6301ZM253.89 53.8501V144.69H393.96V53.8501H253.89ZM350.99 59.6101V69.4901H296.85V59.6101H350.99Z" fill="white"/>
<path fill-rule="evenodd" clip-rule="evenodd" d="M423.68 319.12C444.56 319.12 461.83 327.45 464.78 338.3H382.59C385.52 327.44 402.8 319.12 423.68 319.12Z" fill="#342E2A"/>
<path fill-rule="evenodd" clip-rule="evenodd" d="M370.42 270.56H417.83L447.75 332.32H400.34L370.42 270.56Z" fill="#342E2A"/>
<path fill-rule="evenodd" clip-rule="evenodd" d="M322.48 168.6H481.21L481.69 168.53L489.64 163.94L494.7 169.32L494.72 169.34C495.24 169.89 495.48 170.69 495.31 171.58L471.17 298.43C470.86 300.08 469.25 301.42 467.6 301.42H297.2C296.44 301.42 295.8 301.13 295.36 300.67L295.34 300.65L290.12 295.09L296.45 289.68L318.92 171.59C319.23 169.94 320.83 168.6 322.48 168.6Z" fill="#342E2A"/>
<path fill-rule="evenodd" clip-rule="evenodd" d="M213.82 84.27L217.69 99.5L217.97 112.52C218.27 126.46 218.27 140.4 217.97 154.34C217.82 161.31 214.05 167.69 208.01 171.17C201.98 174.65 194.56 174.73 188.45 171.38V192.28L142.96 169.72L152.06 88.43L213.82 84.27Z" fill="#F29E73"/>
<path d="M534.94 336.01H312.41V345.28H534.94V336.01Z" fill="#342E2A"/>
<path fill-rule="evenodd" clip-rule="evenodd" d="M321.19 319.12C341.59 319.12 360.12 330.65 363.97 345.29H286.66C285.89 330.64 300.79 319.12 321.19 319.12Z" fill="#F29E73"/>
<path fill-rule="evenodd" clip-rule="evenodd" d="M97.51 246.14L135.17 188.54L139.6 168.6L202.75 189.64L205.52 221.77L223.8 236.72L242.07 306.51L324.6 316.48L330.14 345.29H149.02L97.51 246.14Z" fill="#344FA2"/>
<path fill-rule="evenodd" clip-rule="evenodd" d="M97.51 246.14L135.17 188.54L139.6 168.6L177.86 181.35L183.36 216.09L156.5 208.06L186.41 239.91L216.87 331.3L238.19 316.62L233.21 334.62L286.94 345.29H149.02L97.51 246.14Z" fill="#263A95"/>
<path fill-rule="evenodd" clip-rule="evenodd" d="M119.07 345.29L77.94 178.84H0.580017L8.33002 270.79L38.05 345.29H119.07Z" fill="#342E2A"/>
<path fill-rule="evenodd" clip-rule="evenodd" d="M166.56 345.29L118.38 261.37L112.1 201.28C110.66 187.53 98.58 177.39 84.79 178.36L77.95 178.84L85.7 270.78L115.42 345.28H166.56V345.29Z" fill="#7D706A"/>
<path fill-rule="evenodd" clip-rule="evenodd" d="M217.7 99.5001L219.92 92.1601C222.87 82.3901 220.03 71.7801 212.59 64.7901C201.5 54.3701 184.21 54.3701 173.12 64.7901C164.85 72.5501 154.91 78.2901 144.06 81.5701C139.79 82.8601 137.26 87.2501 138.28 91.5901L135.19 93.4001C127.76 97.7601 125.21 107.28 129.47 114.77C137.49 128.89 141.76 144.83 141.88 161.07C141.9 164.5 143.74 167.65 146.71 169.36C149.68 171.07 153.33 171.09 156.31 169.39C168.43 162.51 175.87 149.61 175.77 135.68C175.72 128 179.82 120.89 186.5 117.09C190.18 115 194.85 116.25 196.99 119.9C197.86 121.38 199.76 121.89 201.25 121.03C202.74 120.17 203.25 118.27 202.41 116.78C198.85 110.51 200.98 102.55 207.2 98.9001C210.47 96.9701 218.08 98.2501 217.7 99.5001Z" fill="#323033"/>
<path fill-rule="evenodd" clip-rule="evenodd" d="M317.29 163.07H487.69C489.34 163.07 490.43 164.42 490.12 166.06L465.98 292.91C465.67 294.56 464.06 295.91 462.42 295.91H292.01C290.36 295.91 289.27 294.56 289.58 292.91L313.72 166.06C314.04 164.41 315.64 163.07 317.29 163.07Z" fill="#4E4542"/>
<path fill-rule="evenodd" clip-rule="evenodd" d="M319.67 169.56L298.54 280.56H461.72L482.85 169.56H319.67Z" fill="#2DA3CA"/>
<path fill-rule="evenodd" clip-rule="evenodd" d="M319.67 169.56L315.09 193.64L371.04 280.56H442.67L371.22 169.56H319.67ZM464.78 264.52L403.65 169.56H444.31L474.06 215.77L464.78 264.52Z" fill="#42BAE3"/>
<path fill-rule="evenodd" clip-rule="evenodd" d="M319.67 169.56L317.76 179.58H480.94L482.85 169.56H319.67ZM337.46 198.68L321.88 280.56H442.25L457.83 198.68H337.46Z" fill="#CFECF6"/>
<path fill-rule="evenodd" clip-rule="evenodd" d="M319.67 169.56L317.76 179.58H377.66L371.21 169.56H319.67ZM410.1 179.58H450.76L444.31 169.56H403.65L410.1 179.58ZM389.96 198.68L442.34 280.06L442.25 280.56H371.04L333.1 221.62L337.47 198.68H389.96ZM449.74 241.17L457.82 198.68H422.4L449.74 241.17Z" fill="#E4F5FD"/>
<path fill-rule="evenodd" clip-rule="evenodd" d="M366.14 284.12H390.51C392.72 284.12 394.35 285.93 394.12 288.14C393.9 290.35 391.91 292.15 389.7 292.15H365.33C363.12 292.15 361.5 290.34 361.72 288.14C361.94 285.93 363.93 284.12 366.14 284.12Z" fill="#342E2A"/>
</svg>
