<svg width="35" height="35" viewBox="0 0 35 35" fill="none" xmlns="http://www.w3.org/2000/svg">
<path d="M26.25 32.0833C25.0347 32.0833 24.0017 31.658 23.151 30.8073C22.3003 29.9566 21.875 28.9236 21.875 27.7083C21.875 27.5382 21.8872 27.362 21.9115 27.1797C21.9358 26.9974 21.9722 26.8333 22.0208 26.6875L11.7396 20.7083C11.3264 21.0729 10.8646 21.3585 10.3542 21.5651C9.84375 21.7717 9.30903 21.875 8.75 21.875C7.53472 21.875 6.50174 21.4497 5.65104 20.599C4.80035 19.7483 4.375 18.7153 4.375 17.5C4.375 16.2847 4.80035 15.2517 5.65104 14.401C6.50174 13.5504 7.53472 13.125 8.75 13.125C9.30903 13.125 9.84375 13.2283 10.3542 13.4349C10.8646 13.6415 11.3264 13.9271 11.7396 14.2917L22.0208 8.31251C21.9722 8.16667 21.9358 8.00261 21.9115 7.82032C21.8872 7.63803 21.875 7.46181 21.875 7.29167C21.875 6.07639 22.3003 5.04341 23.151 4.19271C24.0017 3.34202 25.0347 2.91667 26.25 2.91667C27.4653 2.91667 28.4983 3.34202 29.349 4.19271C30.1997 5.04341 30.625 6.07639 30.625 7.29167C30.625 8.50695 30.1997 9.53994 29.349 10.3906C28.4983 11.2413 27.4653 11.6667 26.25 11.6667C25.691 11.6667 25.1562 11.5634 24.6458 11.3568C24.1354 11.1502 23.6736 10.8646 23.2604 10.5L12.9792 16.4792C13.0278 16.625 13.0642 16.7891 13.0885 16.9714C13.1128 17.1537 13.125 17.3299 13.125 17.5C13.125 17.6701 13.1128 17.8464 13.0885 18.0287C13.0642 18.2109 13.0278 18.375 12.9792 18.5208L23.2604 24.5C23.6736 24.1354 24.1354 23.8498 24.6458 23.6432C25.1562 23.4366 25.691 23.3333 26.25 23.3333C27.4653 23.3333 28.4983 23.7587 29.349 24.6094C30.1997 25.4601 30.625 26.4931 30.625 27.7083C30.625 28.9236 30.1997 29.9566 29.349 30.8073C28.4983 31.658 27.4653 32.0833 26.25 32.0833ZM26.25 8.75001C26.6632 8.75001 27.0095 8.61025 27.2891 8.33073C27.5686 8.05122 27.7083 7.70487 27.7083 7.29167C27.7083 6.87848 27.5686 6.53212 27.2891 6.25261C27.0095 5.9731 26.6632 5.83334 26.25 5.83334C25.8368 5.83334 25.4904 5.9731 25.2109 6.25261C24.9314 6.53212 24.7917 6.87848 24.7917 7.29167C24.7917 7.70487 24.9314 8.05122 25.2109 8.33073C25.4904 8.61025 25.8368 8.75001 26.25 8.75001ZM8.75 18.9583C9.16319 18.9583 9.50955 18.8186 9.78906 18.5391C10.0686 18.2596 10.2083 17.9132 10.2083 17.5C10.2083 17.0868 10.0686 16.7405 9.78906 16.4609C9.50955 16.1814 9.16319 16.0417 8.75 16.0417C8.33681 16.0417 7.99045 16.1814 7.71094 16.4609C7.43142 16.7405 7.29167 17.0868 7.29167 17.5C7.29167 17.9132 7.43142 18.2596 7.71094 18.5391C7.99045 18.8186 8.33681 18.9583 8.75 18.9583ZM26.25 29.1667C26.6632 29.1667 27.0095 29.0269 27.2891 28.7474C27.5686 28.4679 27.7083 28.1215 27.7083 27.7083C27.7083 27.2951 27.5686 26.9488 27.2891 26.6693C27.0095 26.3898 26.6632 26.25 26.25 26.25C25.8368 26.25 25.4904 26.3898 25.2109 26.6693C24.9314 26.9488 24.7917 27.2951 24.7917 27.7083C24.7917 28.1215 24.9314 28.4679 25.2109 28.7474C25.4904 29.0269 25.8368 29.1667 26.25 29.1667Z" fill="white"/>
</svg>
