<svg width="720" height="491" viewBox="0 0 720 491" fill="none" xmlns="http://www.w3.org/2000/svg">
<g clip-path="url(#clip0_89_83)">
<path d="M269.719 2.30338C267.469 5.50555 265.444 6.85382 262.575 7.24707C260.438 7.52795 260.1 7.86505 258.863 10.2807C257.006 13.8199 251.944 18.4266 247.388 20.6737C245.363 21.6288 243.45 22.4714 243.056 22.4714C242.719 22.4714 241.763 21.4602 240.975 20.2243C240.131 18.9884 239.006 17.9772 238.5 17.9772C237.938 17.9772 236.138 18.5951 234.45 19.3816C231.413 20.7861 227.081 21.1794 224.719 20.2805C223.931 19.9434 223.144 20.1681 222.019 21.1232C221.175 21.8535 218.363 23.595 215.831 24.9433C213.3 26.3477 210.544 28.0893 209.7 28.7634C207.956 30.2802 205.088 37.6958 202.725 46.9091C201.263 52.5269 201.094 53.9876 201.094 62.3582C201.094 70.5041 201.263 72.0209 202.331 74.886L203.569 78.1443L202.05 78.7061C199.8 79.6049 193.5 80.8971 191.363 80.8971C189.9 80.8971 187.2 82.4701 178.706 88.3688C172.744 92.4698 164.25 98.3686 159.75 101.402C155.25 104.436 148.219 109.323 144.169 112.245L136.688 117.525L135.169 116.402C126.394 110.278 110.25 113.424 102.712 122.638C99.0562 127.188 97.8187 130.671 97.8187 136.458V140.165L93.2062 142.469C90.675 143.761 85.5 146.345 81.7312 148.311C75.4875 151.513 74.475 151.85 70.7625 152.075L66.6562 152.3L69.4125 150.839C77.2312 146.626 82.125 137.132 82.125 126.121C82.125 115.054 77.7375 106.458 70.425 103.2C68.5687 102.357 63.675 101.065 59.0625 100.222C54.5625 99.436 49.8375 98.3124 48.4875 97.8068C41.175 94.9417 26.2687 101.683 15.75 112.75C13.1062 115.503 10.1812 118.368 9.22499 119.098C7.81874 120.222 6.91874 122.132 4.33124 129.267C0.61874 139.604 -0.28126 144.098 0.16874 150.165C0.56249 154.828 1.01249 156.345 8.32499 176.12C15.9187 196.793 15.8625 196.625 17.3812 196.625C18.3375 196.625 19.6312 197.524 21.375 199.434C23.6812 201.906 24.525 202.411 28.1812 203.422C30.4875 204.04 35.4937 205.557 39.375 206.793C52.425 210.95 54.7875 211.4 62.7187 211.456C66.7687 211.512 71.0437 211.344 72.2812 211.119L74.5312 210.726L76.4437 214.209C79.4812 219.883 81.0562 221.905 83.475 223.31C92.5875 228.478 109.069 225.051 117.225 216.287L120.375 212.86V207.58V202.355L123.075 201.344C130.163 198.76 147.6 191.737 154.463 188.76L162.113 185.333L165.319 186.569C171.956 189.097 180.675 187.861 185.175 183.816C188.55 180.782 189.563 178.311 189.563 173.311V169.097L197.438 165.165C206.438 160.671 212.063 158.311 217.013 157.019C220.388 156.176 220.444 156.176 222.413 157.525C223.594 158.311 225.675 158.985 227.588 159.266C233.325 159.94 233.438 160.109 233.438 164.434C233.438 167.861 233.775 168.873 236.194 173.872C240.188 182.131 242.831 185.67 264.431 211.231C275.738 224.658 280.238 230.444 287.156 240.444C290.419 245.163 294.919 250.781 297.844 253.814C300.6 256.623 303.244 259.713 303.75 260.668C304.2 261.567 306.113 263.533 307.969 265.05C309.825 266.511 311.963 268.646 312.694 269.825C313.594 271.174 315.731 272.859 319.106 274.825C321.863 276.454 325.688 279.207 327.6 280.892C329.456 282.578 332.044 284.319 333.281 284.769C336.994 286.005 340.481 288.982 344.025 293.87C349.763 301.847 351.788 304.15 355.05 306.285C357.469 307.858 358.369 308.869 358.875 310.499C359.269 311.678 361.013 314.375 362.756 316.566C366.075 320.667 368.438 324.824 368.438 326.453C368.438 326.959 368.044 328.139 367.594 328.981C365.4 333.195 367.313 338.925 373.5 346.565L376.819 350.722L374.006 353.812C372.431 355.497 370.238 358.306 369.056 360.048C366.413 363.924 353.25 387.295 350.044 393.811C343.35 407.294 344.869 417.462 355.5 430.046C360.113 435.552 371.531 447.855 382.781 459.54C394.538 471.731 403.088 481.056 406.631 485.551C409.331 488.978 411.863 491 413.438 491C414.169 491 414.169 487.292 413.381 485.832C412.594 484.371 410.119 482.292 406.519 479.989C404.775 478.922 403.2 477.292 402.244 475.663C401.456 474.259 399.431 471.562 397.856 469.652C396.225 467.798 394.706 465.551 394.538 464.708C394.313 463.866 391.444 460.383 387.9 456.731C384.469 453.192 378.169 446.45 373.894 441.731C367.538 434.765 365.738 433.08 363.825 432.462C362.025 431.9 360.731 430.889 358.481 428.08C354.938 423.698 352.575 419.035 352.8 416.957C352.913 416.002 353.7 414.991 355.163 414.035C356.963 412.8 357.694 411.676 359.213 407.8C363.6 396.957 371.475 382.913 382.5 366.284C385.594 361.565 388.013 357.576 387.9 357.408C387.169 356.677 384.019 358.868 381.994 361.452C379.856 364.261 374.119 373.98 367.369 386.452C365.4 389.991 363.319 393.587 362.644 394.429C359.719 398.137 360.281 396.002 364.444 387.744C369.619 377.576 374.738 368.924 382.444 357.295C389.475 346.677 389.475 346.734 384.469 351.958C377.1 359.655 371.25 369.093 359.719 392.182C356.119 399.317 353.081 405.047 352.969 404.935C352.856 404.822 353.363 402.463 354.15 399.71C355.556 394.654 357.469 390.721 359.1 389.317C359.663 388.868 360 387.688 360 386.171C360 384.036 360.731 382.576 365.85 374.598C395.044 328.869 419.738 299.937 447.469 278.87C456.244 272.241 462.038 268.365 460.181 270.387C459.394 271.286 459 272.185 459.225 272.747C459.506 273.533 459.956 273.365 462.263 271.735C463.725 270.668 467.044 268.646 469.688 267.297C474.019 265.106 474.638 264.601 476.044 261.904C477.169 259.826 477.956 258.983 478.8 258.983C481.219 258.983 484.594 261.679 490.95 268.758C500.063 278.87 502.819 282.353 504.563 286.117C505.463 287.971 507.769 291.061 510.131 293.533C512.325 295.836 516.6 301.454 519.581 306.004C522.619 310.555 525.375 314.375 525.769 314.487C526.163 314.6 526.894 314.15 527.456 313.532C528.863 311.847 529.538 312.072 531.169 314.543C532.013 315.779 534.488 318.981 536.794 321.734C539.044 324.431 541.969 328.195 543.263 330.105C545.681 333.7 547.144 334.936 549.675 335.61C550.969 335.891 551.25 335.779 551.588 334.599C551.981 332.858 550.913 328.981 549.225 326.341C548.494 325.161 544.725 320.835 540.788 316.734C533.7 309.263 522.788 297.128 513.281 285.949C503.944 274.994 495.731 266.005 491.231 261.736C486.225 256.96 480.825 252.803 479.644 252.803C479.194 252.803 477.9 253.59 476.719 254.489C474.244 256.455 473.681 256.399 472.5 254.152C470.306 249.938 466.65 244.882 463.275 241.568L459.563 237.972L456.413 238.646C454.669 238.983 452.981 239.152 452.756 238.983C452.475 238.815 452.25 235.219 452.25 230.95C452.25 213.534 448.931 194.097 443.475 179.378C438.975 167.187 431.156 153.199 424.8 146.008C422.494 143.424 422.494 143.368 422.494 138.929C422.494 133.705 421.481 130.559 417.375 123.199C415.856 120.447 414.225 117.245 413.719 116.065L412.763 113.874L416.925 114.211C419.175 114.379 428.231 114.941 437.063 115.447C478.631 117.694 490.331 120.952 503.888 133.93C512.719 142.413 516.263 149.266 518.344 161.794C518.85 164.715 519.694 167.693 520.2 168.367C533.813 186.007 533.081 185.221 535.838 185.614C537.3 185.782 539.438 186.232 540.619 186.513L542.813 187.131L544.838 193.703C548.325 204.827 549.844 206.905 558.619 212.523C561.263 214.209 565.144 217.074 567.338 218.928C574.931 225.444 578.363 227.186 590.906 231.118C594.844 232.354 600.244 234.601 603.9 236.568C609.469 239.489 610.706 239.938 615.994 240.725C619.2 241.174 624.656 242.186 628.144 242.972C636.019 244.714 641.138 244.77 644.625 243.197C646.031 242.523 646.931 241.905 646.594 241.792C646.313 241.736 642.094 241.062 637.313 240.444C611.213 236.792 589.163 230.444 574.031 222.186C569.869 219.939 567.956 218.366 561.994 212.242C554.794 204.883 552.375 201.512 552.375 198.928C552.375 195.726 553.275 195.782 555.75 199.209C559.631 204.546 569.194 213.647 574.481 217.13C579.938 220.669 586.294 223.703 591.694 225.388C593.888 226.062 595.744 227.017 596.363 227.86C596.981 228.59 598.725 229.545 600.356 230.051C601.988 230.5 603.675 231.455 604.181 232.073C604.913 233.085 605.25 233.141 606.263 232.635C608.119 231.624 610.706 231.905 616.275 233.703C621.113 235.219 621.788 235.332 624.375 234.714C626.794 234.152 627.525 234.208 629.269 235.051C630.394 235.613 634.106 236.68 637.538 237.41C644.175 238.871 650.138 240.669 652.613 241.905C654.075 242.691 654.188 242.635 655.031 241.006C655.538 240.051 655.763 238.759 655.594 238.197C655.088 236.624 652.106 234.264 648.731 232.804C647.1 232.073 645.75 231.399 645.75 231.231C645.75 231.118 647.663 227.804 649.913 223.871C654.075 216.793 656.494 211.568 657.281 208.029C657.619 206.4 657.506 206.175 656.438 206.175C654.469 206.175 652.725 208.759 651.094 213.928C650.25 216.624 648.563 220.444 647.325 222.411C646.088 224.433 644.456 227.242 643.781 228.703C642.206 232.186 641.363 233.141 640.069 233.141C639.169 233.141 639.056 232.86 639.338 231.568C639.956 229.152 640.969 226.961 643.444 222.748C644.738 220.557 646.256 217.13 646.875 215.107C647.494 213.029 648.394 211.063 648.9 210.613C651.881 208.141 663.075 185.277 667.744 172.075C669.263 167.637 670.894 164.266 672.638 161.85C676.575 156.289 679.781 147.749 677.925 147.749C677.475 147.749 661.444 179.771 658.8 185.951C655.481 193.591 639.788 225.22 638.606 226.68C637.031 228.534 634.05 230.613 633.6 230.219C632.756 229.321 638.888 216.343 641.925 212.692C642.881 211.512 644.906 207.523 646.369 203.872C647.831 200.22 652.725 189.715 657.225 180.502C665.719 162.974 668.475 156.738 671.119 148.929L672.75 144.154L671.006 145.839C668.475 148.255 666.844 151.289 664.031 158.929C660.206 169.266 655.2 180.052 642.206 206.063C632.531 225.444 630.056 229.995 628.819 230.669C627.919 231.118 627.131 231.455 626.963 231.455C626.063 231.455 630.844 220.444 638.663 204.771C649.069 183.76 654.638 171.962 659.363 160.671C663.131 151.682 667.181 140.896 666.9 140.559C666.563 140.278 662.906 144.997 661.331 147.749C660.544 149.154 658.463 154.322 656.719 159.266C650.588 176.625 637.931 203.759 632.925 210.276C630.338 213.591 629.944 214.49 628.313 219.939C627.694 222.074 626.85 224.265 626.456 224.77C625.613 225.894 622.744 227.748 622.406 227.411C622.294 227.298 623.981 223.422 626.119 218.815C632.25 205.95 642.994 182.524 646.313 174.996C651.713 162.749 660.375 141.907 660.15 141.738C659.869 141.457 657 145.165 655.425 147.862C654.694 148.985 652.388 154.154 650.25 159.378C648.113 164.547 644.85 172.187 642.938 176.288C641.081 180.389 638.663 186.232 637.65 189.322C636.638 192.411 635.288 195.501 634.669 196.175C633.994 196.906 632.756 199.209 631.913 201.4C631.069 203.535 628.875 207.411 627.075 209.883C624.6 213.366 623.363 215.782 622.069 219.714C620.944 223.253 619.819 225.557 618.75 226.624C617.85 227.579 617.006 228.197 616.894 228.029C616.556 227.748 622.125 215.107 637.931 179.884C645.075 164.041 650.813 150.895 650.588 150.727C650.025 150.165 647.494 152.188 646.031 154.379C645.3 155.502 643.5 159.547 642.094 163.367C639.225 171.232 638.213 173.367 636.581 175.108C634.556 177.356 634.613 176.513 636.806 172.299C637.931 170.108 639.844 165.109 640.969 161.232C645.638 145.39 646.875 141.795 649.013 138.761C651.319 135.334 670.894 94.8855 674.213 86.5711C676.238 81.4027 679.219 76.4028 680.513 75.9534C682.369 75.3354 663.581 117.188 653.963 134.997C651.094 140.278 650.644 141.57 650.419 144.828L650.194 148.592L651.263 146.345C651.825 145.109 657.788 132.975 664.425 119.379C671.063 105.784 677.138 93.0316 677.925 91.0092C678.713 88.9868 680.006 85.5037 680.906 83.2566C682.369 79.2679 685.8 74.7174 687.263 74.7174C688.444 74.7174 683.494 87.1329 680.456 91.9642C679.613 93.3125 677.925 97.3574 676.744 101.009C675.563 104.604 671.738 113.537 668.25 120.784C662.85 131.963 661.894 134.435 661.838 136.795C661.781 140.446 662.906 140.559 664.875 137.076L666.281 134.548L666.45 136.345C666.563 137.356 666.844 138.199 667.069 138.199C667.8 138.199 696.769 80.3914 697.5 77.5264C698.456 73.8186 699.469 72.4703 701.381 72.4703H703.013L699.356 80.4476C692.944 94.4922 687.713 105.11 682.763 114.042C674.1 129.66 669.375 139.884 670.725 139.884C672.131 139.884 674.381 136.682 676.519 131.739C677.7 128.93 680.006 124.885 681.581 122.75C685.181 117.806 685.913 116.233 687.094 111.795C688.219 107.526 689.063 105.728 691.875 101.964C694.856 97.9753 701.156 84.0992 702.281 78.987C702.788 76.6275 703.744 74.0995 704.363 73.313C705.6 71.74 707.906 71.4591 709.594 72.695C710.606 73.4253 710.606 73.5377 709.65 76.0657C709.088 77.5264 708.019 79.4364 707.288 80.2791C706.556 81.1779 705.206 83.9869 704.25 86.5711C701.944 92.7507 697.556 101.458 691.65 111.402C685.519 121.739 681.638 129.042 679.5 134.21C678.6 136.514 677.813 138.48 677.813 138.649C677.813 138.873 678.825 137.974 680.119 136.795C682.875 134.098 685.575 129.435 688.894 121.458C690.3 118.143 692.156 114.604 693.056 113.593C693.956 112.582 695.813 109.548 697.163 106.852C699.863 101.571 701.156 99.5483 701.606 99.9977C702.113 100.503 699.131 107.245 694.8 115.334C690.075 124.211 688.725 127.525 689.85 127.525C691.031 127.525 692.381 125.671 693.394 122.694C693.9 121.065 695.419 118.705 696.994 116.964C700.313 113.368 702.675 109.211 704.025 104.773C704.588 102.919 705.881 100.391 706.838 99.1551C709.538 95.7282 712.519 89.998 713.475 86.2902C713.981 84.4363 714.263 82.8071 714.094 82.6948C713.475 82.0768 711.113 83.2566 710.438 84.5487C710.044 85.3352 709.2 85.9531 708.638 85.9531C707.738 85.9531 707.906 85.3352 710.1 81.1779C711.506 78.5376 712.8 75.5039 713.025 74.3804C713.25 72.9759 713.869 72.1894 715.05 71.5714C717.469 70.2793 718.875 68.7063 718.875 67.1333V65.7289L713.981 66.0098C682.481 67.976 656.1 72.0209 626.006 79.5488C614.025 82.5262 613.238 82.8071 611.438 84.7734C610.481 85.8969 608.344 86.9644 604.688 88.2003C583.369 95.3911 567.563 110.278 555.413 134.491C553.388 138.536 551.588 141.963 551.475 142.075C550.8 142.75 552.15 136.121 553.613 131.739C556.538 122.806 562.106 114.379 570.431 106.402C593.663 84.1554 630.394 70.2231 680.625 64.6615C695.869 62.92 707.456 62.1896 712.744 62.5267C717.919 62.8638 718.369 62.7514 719.381 60.7852C720.675 58.3133 719.888 57.7515 715.556 58.201L711.619 58.538L711.281 56.5718C711.056 55.5044 711.169 52.8078 711.506 50.673C712.35 45.3923 712.238 37.752 711.338 35.6734C710.719 34.2127 710.775 33.7633 711.506 32.5836C712.238 31.5162 712.406 29.6623 712.406 23.9883V16.7412L709.425 17.0221C707.794 17.1907 705.656 17.8086 704.7 18.4266L703.013 19.494L704.756 20.1119C705.713 20.449 706.5 20.9546 706.5 21.2355C706.5 21.5164 705.994 23.7074 705.375 26.123C704.419 29.887 704.25 32.3589 704.25 43.9316C704.25 51.291 704.475 57.3021 704.7 57.3021C705.881 57.3021 706.5 55.6168 706.556 52.246C706.613 47.3023 707.513 45.0552 707.569 49.7742C707.625 51.6281 708.019 54.437 708.469 55.9538C708.919 57.4706 709.313 59.0436 709.313 59.3807C709.313 60.3358 702.788 60.3919 702.225 59.4369C702 59.0998 701.831 56.1785 701.775 53.0325C701.775 47.6394 701.663 47.2462 700.594 47.0776C699.525 46.9091 699.469 46.4597 699.188 37.0779C698.963 28.7072 698.738 26.9657 697.838 25.2804L696.713 23.3141L696.375 25.4489C695.813 28.7072 694.688 29.4376 694.688 26.5725C694.688 25.2804 694.463 24.0444 694.125 23.8759C693.788 23.6512 693.563 24.4939 693.563 26.0669C693.563 27.4152 693.281 29.269 692.944 30.1679C692.325 31.7409 692.325 31.7409 691.706 30.4488C690.919 28.7072 689.85 28.932 689.4 30.9544C689.231 31.9094 689.063 36.9093 689.063 41.9654C689.063 50.2236 689.175 51.1786 689.963 50.8978C690.469 50.7292 690.919 50.5607 691.031 50.5607C691.144 50.5607 691.425 49.4371 691.65 48.0327C692.156 44.381 692.775 44.8867 692.55 48.8192C692.325 52.0775 693.056 54.4932 694.125 54.4932C694.463 54.4932 694.688 53.482 694.688 52.246C694.688 50.1113 695.363 49.3248 696.094 50.5607C696.263 50.8416 697.163 51.1225 698.063 51.1225C699.806 51.1225 700.706 51.909 699.694 52.5269C699.3 52.8078 699.244 54.0999 699.469 56.4033L699.863 59.9425L691.763 60.9537C682.481 62.0773 679.556 61.8526 679.444 59.9425C679.331 57.6392 679.556 55.8415 680.344 53.0325L681.075 50.2798L681.131 52.5831C681.188 55.2235 682.594 56.965 683.494 55.5606C684.056 54.6617 684.225 51.4034 684.056 45.7855C683.944 43.5945 684.338 39.3812 684.844 36.4037C685.631 31.7971 685.631 30.6735 685.013 29.3814C684.619 28.4825 683.888 27.8084 683.438 27.8084C682.763 27.8084 682.538 28.7634 682.425 32.1342C682.313 35.0554 682.031 36.6284 681.469 37.0779C680.738 37.6958 680.625 36.9655 680.625 31.7971C680.625 28.5387 680.4 25.8422 680.175 25.8422C679.894 25.8422 679.163 26.9095 678.6 28.2017C677.644 30.3926 677.531 31.7971 677.7 43.2575C677.869 57.0774 677.475 60.3358 675.169 62.5829C674.044 63.7065 673.538 63.875 672.75 63.4818C671.175 62.6391 668.081 62.8076 663.638 64.0435C661.388 64.6053 654.75 65.7851 648.844 66.5716C642.994 67.3581 636.131 68.4816 633.656 69.0996C625.95 70.8973 611.325 76.4028 602.663 80.7847C600.806 81.7397 597.206 83.2004 594.675 83.9869C592.144 84.8296 588.544 86.5149 586.631 87.7509C582.469 90.5598 568.744 103.706 563.456 109.998C560.363 113.705 554.681 118.874 554.288 118.368C553.894 117.863 553.556 106.121 553.894 106.346C554.85 106.964 555.806 105.784 556.144 103.593C556.538 100.897 557.269 99.8854 558.563 100.279C560.025 100.728 560.306 99.2674 559.463 95.3349C559.069 93.3687 558.9 91.2901 559.125 90.7283C559.519 89.6609 559.519 89.6609 560.194 90.8969C561.488 93.3125 562.106 92.3013 561.713 88.425L561.319 84.7734L564.75 83.2566L568.238 81.7959L567.9 79.5488C567.675 77.9758 567.956 76.2904 568.744 74.1556C569.363 72.4703 570.15 70.167 570.488 69.0996C571.331 66.5716 571.219 66.6277 572.456 67.3019C573.356 67.8636 573.525 67.4704 574.313 63.4818L575.156 59.0998L585 51.6843C593.55 45.1675 595.406 44.044 599.4 42.6957C601.931 41.7968 608.175 39.4373 613.238 37.4711C623.306 33.4262 631.35 31.1229 637.2 30.5612C639.45 30.3926 641.981 29.7185 643.5 28.932C647.1 27.0781 651.319 26.2916 653.85 27.0219C654.975 27.3028 655.875 27.696 655.875 27.8646C655.875 28.0331 655.031 29.2129 653.963 30.3926C651.263 33.5386 648.731 38.5947 648.281 41.6283C647.831 44.7181 648.956 47.6956 651.206 49.1562C653.175 50.4483 654.188 49.8865 654.244 47.3585C654.3 45.954 654.469 46.572 654.806 49.1C655.256 52.9763 656.325 54.9988 657.563 54.2123C658.069 53.8752 658.181 50.4483 658.069 40.5047L657.844 27.2466L660.094 26.5163C661.331 26.0669 663.638 25.6174 665.213 25.4489L668.138 25.1118L668.531 28.4264C668.7 30.2802 668.588 36.0105 668.25 41.2912C667.631 50.3922 667.8 57.1336 668.756 59.774C669.206 60.8413 669.319 60.729 669.994 58.7066C670.5 57.1336 670.725 52.3022 670.838 42.9766C671.006 26.4601 670.894 27.9769 671.906 26.6287C672.75 25.6736 672.75 27.1904 672.413 43.2013C672.131 57.9201 672.188 60.7852 672.806 60.5605C674.55 59.9987 674.944 56.628 674.831 42.9766C674.719 27.7522 675.113 25.0557 677.7 24.1006C678.544 23.7635 682.369 23.1456 686.194 22.7523C690.019 22.3029 693.225 21.8535 693.394 21.6849C693.563 21.5164 692.831 20.8984 691.819 20.2805C688.95 18.5389 685.406 18.5389 678.094 20.2805C675.619 20.8423 670.838 21.6288 667.406 21.9659C661.331 22.5276 634.669 27.4152 624.656 29.7747C611.156 32.8645 597.319 39.325 580.669 50.1113L573.806 54.6055L566.831 63.9312C558.113 75.6725 556.763 77.6949 553.163 84.1554C551.138 87.7509 550.181 89.0991 549.9 88.4812C549.169 86.5711 549.675 84.3801 551.813 79.7735C553.05 77.1331 554.063 74.6613 554.063 74.268C554.063 73.9309 554.4 73.5939 554.794 73.5939C555.244 73.5939 556.031 73.0883 556.594 72.4703C557.156 71.8523 557.888 71.3467 558.225 71.2906C558.563 71.2906 559.575 69.8299 560.475 68.0884C564.413 60.2234 565.031 59.3807 569.475 55.5044C590.231 37.5273 619.144 25.9545 660.375 19.1569C676.519 16.5165 690.469 15.1121 699.469 15.2806C706.444 15.3929 707.569 15.2806 709.2 14.3256C710.156 13.7076 711 13.0334 711 12.6964C711 11.9099 682.538 13.5952 665.55 15.4491C661.388 15.8986 655.088 16.2918 651.544 16.2918C643.275 16.2918 634.725 17.921 631.125 20.2243C629.044 21.5726 627.188 22.022 620.494 23.0332C611.213 24.4377 604.294 26.4039 601.031 28.6511C599.794 29.4937 595.631 32.0218 591.75 34.2689C587.869 36.4599 583.706 39.1565 582.469 40.1677C581.231 41.1227 579.15 42.5272 577.856 43.2013C576.506 43.8755 575.438 44.7743 575.438 45.2799C575.438 46.8529 573.188 50.5045 571.331 51.909C568.238 54.2685 565.088 54.6617 554.625 53.8752C548.438 53.482 542.644 53.4258 537.188 53.7067C527.175 54.3246 513.056 53.819 504.113 52.5269C498.994 51.7966 497.081 51.7404 496.181 52.1898C495.281 52.6955 494.606 52.6393 493.2 51.909C490.781 50.6169 487.013 50.7854 478.856 52.5831C477.956 52.7516 477.563 52.5831 477.563 51.9651C477.563 51.3472 476.944 51.1225 475.088 51.1225C473.738 51.1225 472.5 50.8416 472.388 50.5607C472.275 50.1674 471.488 50.2236 470.138 50.7854C469.013 51.291 465.413 51.909 462.094 52.246C457.931 52.6393 455.456 53.1449 454.163 53.8752C452.475 54.8864 452.306 54.8864 452.025 54.0438C451.631 52.5831 450.675 45.1675 450.281 40.4485C450.113 38.1452 449.831 35.5049 449.663 34.6622L449.325 33.033L451.069 33.988C454.219 35.561 455.063 33.5948 452.25 31.2915C451.35 30.505 450.113 29.7185 449.606 29.5499C449.044 29.3814 447.975 28.0331 447.244 26.6287C446.456 25.2242 443.981 22.3591 441.731 20.3367C439.425 18.2581 437.063 15.7862 436.444 14.8312C435.713 13.6514 434.756 12.9211 433.519 12.6964C432.563 12.5279 428.175 10.5616 423.844 8.37064C419.513 6.17969 414.956 4.26962 413.719 4.15726C411.919 3.93256 408.881 4.77521 399.094 8.08975C387.844 11.9099 386.606 12.2469 385.594 11.4604C380.981 8.14594 378.394 6.62912 375.469 5.61789C370.969 4.04489 361.744 2.86514 353.813 2.80896C350.269 2.75281 344.7 2.52808 341.438 2.30338L335.531 1.85394L332.044 4.60669C330.188 6.06732 327.825 8.20212 326.925 9.2695L325.181 11.1796L321.019 9.2695C309.263 3.87637 295.875 1.01126 278.831 0.280945L271.406 -0.0561218L269.719 2.30338ZM289.406 4.71906C290.025 5.1123 294.863 6.40439 300.206 7.52795C310.331 9.66275 314.325 10.8425 318.263 12.8649C320.963 14.2694 323.213 14.3817 323.831 13.202C324.225 12.584 326.194 15.0559 331.65 22.9209C335.7 28.7072 339.638 34.4375 340.425 35.7296C342.169 38.4823 346.613 47.19 346.275 47.19C346.106 47.19 345.15 45.7293 344.025 43.9316C341.775 40.2238 340.088 38.4823 339.244 39.0441C338.063 39.7182 338.681 41.6283 340.819 43.9878C343.463 46.8529 344.25 48.3697 344.25 50.2798C344.25 51.5157 344.081 51.7404 343.294 51.4034C340.875 50.3922 337.5 50.5045 333.113 51.6281C330.581 52.3022 327.544 52.8078 326.363 52.8078C324.281 52.8078 324.225 52.7516 322.144 48.5945C321.019 46.2911 319.894 43.3698 319.725 42.1339C319.5 40.898 319.163 39.8868 318.881 39.8868C318.15 39.8868 316.125 42.808 316.125 43.9316C316.125 46.7967 319.275 51.5719 323.719 55.2235C325.913 57.0774 326.419 57.2459 327.488 56.6841C328.106 56.3471 332.1 55.5606 336.319 54.9988C340.988 54.3246 344.7 53.482 346.05 52.8078L348.188 51.6843L348.525 53.0325C348.694 53.819 348.413 55.392 347.738 56.9088C346.669 59.3807 346.613 59.3807 343.125 59.7178C341.156 59.9425 337.05 60.111 333.9 60.111C324.675 60.0548 320.344 58.0324 309.488 48.4259C301.781 41.6845 291.6 33.1454 291.15 33.1454C291.038 33.1454 291.094 33.9319 291.375 34.9431C291.713 35.8981 293.794 38.5947 296.269 41.1227C300.094 45.0552 300.488 45.6732 299.588 46.1788C297.956 47.0776 294.863 46.1788 288.113 42.8642C283.5 40.5609 280.856 39.6059 278.775 39.4373C275.963 39.2126 275.738 39.0441 274.219 36.6284C269.606 29.3814 263.025 24.4377 256.05 22.9771L252.844 22.3029L257.85 17.6401C265.388 10.6178 271.8 6.57294 278.438 4.71906C281.925 3.76401 288.056 3.76401 289.406 4.71906ZM361.406 7.07855C373.444 7.19089 373.613 7.24707 384.638 17.0221C396.338 27.359 399.488 31.3477 401.681 38.707C402.356 41.0665 402.356 41.235 401.063 42.2463L399.713 43.3137L401.513 46.7967C403.425 50.4483 403.65 51.4034 402.806 51.909C402.525 52.1337 398.925 52.7516 394.763 53.3696L387.281 54.5493L386.044 53.0887C385.369 52.3022 384.244 49.9427 383.625 47.8641L382.444 44.1002L384.638 42.0215C387.169 39.7182 389.981 38.7632 394.875 38.5947C398.531 38.5385 399.206 37.8082 397.013 36.2914C393.694 33.9319 384.638 36.3475 381.15 40.5047C379.463 42.471 379.463 42.2463 380.588 50.1674L380.981 52.864L378.113 51.7966C374.119 50.2798 371.363 47.9203 366.075 41.6283C361.575 36.2914 358.931 33.7633 355.95 31.8532L354.375 30.8982V32.4712C354.375 34.2127 355.388 35.7296 359.381 40.1677L361.969 42.9766L359.663 43.1451C356.738 43.3698 351.844 41.516 348.806 39.1565C345.938 36.8531 342.619 32.4712 337.95 24.7747C336.038 21.5726 333.338 17.5277 332.044 15.8424C329.569 12.6402 329.569 12.1908 331.706 10.5054C332.438 9.94363 333 9.0448 333 8.483C333 7.64032 333.675 7.41562 336.825 7.1347C338.906 6.91 341.775 6.74146 343.294 6.74146C345.206 6.74146 346.219 6.46057 346.894 5.61789C347.85 4.55051 347.85 4.55051 349.819 5.78644C351.675 6.91 352.575 7.02237 361.406 7.07855ZM421.481 12.9211C423.731 14.157 428.344 16.5727 431.719 18.2019C435.15 19.8311 438.469 21.7973 439.144 22.5276C442.181 25.8983 444.6 32.8083 445.219 39.9991L445.556 44.1002L444.6 42.2463C442.575 38.37 436.613 34.8307 432.056 34.8307C429.581 34.8307 426.488 35.9543 424.688 37.4149C423.056 38.8194 423 38.9879 423 43.8755C423 46.6282 422.831 48.8753 422.55 48.8753C422.325 48.8753 421.2 48.2574 420.019 47.4709C418.388 46.2911 417.319 44.7181 414.9 39.7182C412.144 33.988 409.556 30.3364 408.319 30.3364C407.081 30.3364 407.981 34.1004 410.006 37.5273C411.188 39.6059 412.369 41.9654 412.538 42.808C412.875 44.2687 412.819 44.2687 411.131 43.8193C406.913 42.5833 405.338 40.3362 401.006 29.4937C399.488 25.6736 398.588 24.4377 395.325 21.2917C391.613 17.6963 390.544 15.73 392.4 15.73C392.85 15.73 396.731 14.6064 400.95 13.202C410.119 10.2245 410.625 10.1684 414.45 10.3931C416.644 10.5616 418.444 11.1796 421.481 12.9211ZM251.494 26.3477C257.231 27.5275 262.688 28.932 263.588 29.3814C266.794 31.0667 268.144 33.2015 272.588 44.1002C273.488 46.4035 275.175 49.1 276.581 50.5607C278.944 53.1449 280.35 55.7853 279.731 56.4033C279.506 56.5718 278.719 56.7403 277.875 56.7403C275.794 56.7403 270.506 58.201 264.994 60.2234C260.438 61.9088 260.269 61.9649 259.763 60.8975C259.425 60.3358 257.569 58.2571 255.656 56.3471L252.113 52.864L252.844 50.4483C253.294 49.1 253.744 47.3585 253.913 46.572C254.531 43.5945 261.506 42.5833 266.063 44.8305C268.256 45.8979 268.313 45.8979 268.313 44.8305C268.313 40.4485 261.731 38.4261 255.938 41.0665C251.213 43.2013 249.188 46.2911 249.188 51.4595C249.188 54.6055 249.3 54.7741 251.888 57.2459C254.756 60.0548 262.013 64.6053 263.588 64.6053C264.15 64.6053 265.894 63.8188 267.581 62.92C269.438 61.8526 271.35 61.2346 272.7 61.2346H274.838L274.95 64.5491L275.063 67.8075L272.981 68.2007C269.606 68.7063 263.025 68.594 259.763 67.9198C253.519 66.5716 249.075 64.0435 235.238 53.7628C229.219 49.2686 228.15 48.763 228.769 50.3922C230.063 53.9314 234.056 58.1448 240.075 62.2458C243.675 64.7177 243.956 65.0547 242.888 65.3918C239.963 66.1783 236.475 65.6165 229.388 63.2008C225.281 61.8526 220.781 60.5605 219.375 60.3358L216.844 59.9425L217.969 61.2346C219.656 63.1447 223.538 64.8862 230.344 66.7401C233.775 67.6951 237.15 68.7063 237.938 68.9872L239.344 69.549L237.656 70.2231C235.688 71.0096 226.631 72.9759 216.394 74.886C207.9 76.459 207.563 76.3466 207.563 71.7961C207.563 69.3243 207.45 68.9872 206.494 69.2681C205.538 69.4928 205.369 69.0996 205.031 66.0659C204.525 61.0661 205.65 53.3696 207.9 46.6282C210.038 40.1677 214.763 31.6847 217.8 28.8758C223.988 23.0332 232.65 22.3591 251.494 26.3477ZM437.85 40.8418C441.675 43.5384 445.388 52.5831 443.194 53.9876C442.744 54.2685 439.538 54.4932 436.05 54.4932H429.75L428.906 52.6393C428.231 51.1786 426.544 44.2687 426.263 41.853C426.206 41.516 427.331 40.7295 428.681 39.9991C431.831 38.37 434.7 38.5947 437.85 40.8418ZM354.938 46.572C354.938 47.8641 352.631 52.3022 352.125 51.9651C351.338 51.4595 351.394 47.5832 352.238 46.7405C353.025 45.954 354.938 45.8417 354.938 46.572ZM286.088 49.2124C285.863 49.8304 284.794 51.2348 283.725 52.4708C282.15 54.0999 281.588 54.437 281.194 53.8752C280.35 52.5269 280.575 52.0213 283.05 49.718C285.469 47.4709 286.763 47.2462 286.088 49.2124ZM418.163 51.909L421.481 53.7628L420.244 54.9988C419.006 56.2347 416.813 56.5156 413.606 55.8415C412.256 55.5606 411.75 55.055 411.244 53.3696C410.288 50.2236 410.4 49.9989 412.763 49.9989C414.056 49.9989 416.025 50.673 418.163 51.909ZM359.663 53.5943C358.875 55.9538 356.4 58.9313 355.781 58.3133C354.994 57.5268 358.763 51.1225 360 51.1225C360.281 51.1225 360.113 52.246 359.663 53.5943ZM369.563 52.3584C369.563 53.8752 367.931 56.4594 366.244 57.6392C365.119 58.4257 365.063 58.4257 365.063 57.0212C365.063 54.437 367.313 51.2348 369.169 51.1225C369.394 51.1225 369.563 51.6843 369.563 52.3584ZM299.25 53.3696C306.731 54.2685 308.475 54.8303 310.556 56.8527C312.75 59.0436 313.481 60.729 315.956 69.3243C317.025 72.9759 318.656 77.5264 319.669 79.4364C321.3 82.6386 321.413 83.2566 321.413 88.7621C321.469 92.0204 321.244 98.9865 320.963 104.267C320.344 115.503 320.681 116.964 326.025 128.761C327.769 132.581 330.525 139.772 332.156 144.772C335.588 155.053 336.544 156.738 345.15 167.749C349.481 173.198 351.281 175.951 351.506 177.412C351.956 180.164 355.5 182.749 363.881 186.569C368.213 188.535 370.969 190.108 372.094 191.4C373.05 192.411 374.344 193.254 375.019 193.254C377.494 193.254 379.013 194.378 382.725 198.872C386.55 203.479 389.194 205.613 391.106 205.613C392.063 205.613 392.006 205.332 390.656 202.917C389.869 201.456 387.675 198.31 385.763 195.894C383.175 192.636 381.994 191.569 380.981 191.569C379.125 191.569 376.65 190.22 372.656 187.074C368.775 183.985 367.088 183.086 362.813 181.794C361.125 181.232 359.325 180.502 358.875 180.164C357.413 179.041 355.219 175.726 353.813 172.468C353.025 170.783 351 167.805 349.256 165.895C345.375 161.682 341.156 154.94 338.963 149.491C337.219 145.221 337.331 144.098 339.244 145.839C340.313 146.794 340.425 146.794 340.931 145.952C341.438 145.053 341.831 145.165 345.263 146.963L349.031 148.985L356.906 148.704C363.094 148.48 366.863 147.974 374.344 146.345C389.475 143.143 395.775 142.132 402.019 142.019C405.225 141.963 407.813 141.682 407.813 141.457C407.813 141.177 407.194 140.334 406.406 139.604C405.338 138.48 404.494 138.199 402.075 138.199C400.444 138.199 398.194 138.48 397.125 138.817C396.056 139.21 391.725 139.547 387.563 139.604C380.138 139.66 379.8 139.716 371.813 142.356C363.544 145.053 356.344 146.289 353.981 145.446C353.081 145.109 352.688 144.491 352.688 143.536C352.688 142.3 352.463 142.075 351.45 142.244C350.494 142.356 350.1 142.862 349.988 143.929C349.763 145.727 349.2 145.896 348.131 144.603C347.063 143.311 347.344 140.559 348.975 136.907C349.763 135.109 350.438 133.424 350.438 133.143C350.438 131.907 349.256 132.694 347.906 134.828C347.119 136.064 346.163 137.076 345.713 137.076C345.15 137.076 345.375 135.952 346.556 132.637C350.269 122.076 354.431 116.964 360.675 115.278C363.656 114.492 362.925 115.784 358.931 118.48C357.188 119.716 355.388 121.065 354.994 121.57C354.319 122.357 354.431 122.469 355.613 122.469C356.906 122.469 359.044 121.233 364.725 117.132C367.706 114.941 369.675 114.436 368.381 116.121C367.988 116.683 367.031 117.863 366.244 118.761L364.781 120.391L366.638 119.997C367.706 119.829 370.744 118.649 373.388 117.357L378.281 115.054L388.406 114.885C393.975 114.829 400.444 114.548 402.863 114.323L407.138 113.874L408.375 116.346C409.106 117.694 411.131 121.121 412.988 123.986C416.813 129.941 418.5 134.21 418.5 138.199V141.008H415.013C413.044 141.008 411.075 141.289 410.625 141.57C409.05 142.581 411.638 144.323 415.406 144.828L418.725 145.221L425.306 154.94C428.906 160.277 433.013 166.962 434.475 169.828C438.806 178.479 443.925 194.939 446.681 209.265C447.975 215.95 447.919 218.31 446.344 227.017L445.388 232.41L446.85 236.624C448.706 241.961 448.706 242.803 446.625 243.983C443.363 245.949 431.606 254.713 425.25 259.994C421.706 262.972 415.013 269.151 410.4 273.814C405.731 278.477 400.781 283.14 399.375 284.263C396.731 286.286 394.313 288.814 389.588 294.656C388.069 296.51 386.1 298.645 385.256 299.431C384.356 300.218 382.219 303.476 380.475 306.735C376.706 313.701 374.85 316.51 372.263 318.925L370.406 320.723L365.513 313.027C357.638 300.499 353.869 295.555 347.625 289.319C343.406 285.106 340.313 282.634 336.938 280.668C327.881 275.387 323.606 272.466 322.988 271.061C322.538 270.106 321.863 269.657 320.963 269.657C317.25 269.657 308.588 260.219 299.138 245.781C298.013 244.096 296.325 242.466 294.919 241.68C293.344 240.837 292.05 239.433 290.925 237.467C289.969 235.837 287.381 232.41 285.131 229.77C280.069 223.759 275.456 216.793 274.275 213.31C273.15 209.939 273.094 209.209 274.219 210.108C274.669 210.501 275.063 211.456 275.063 212.299C275.063 214.321 275.681 216.287 276.244 216.287C276.525 216.287 276.75 215.782 276.75 215.22C276.75 214.602 276.975 213.984 277.256 213.815C278.1 213.31 279.394 215.332 280.35 218.647C281.306 221.905 281.981 222.635 282.6 221.062C283.106 219.714 284.569 220.107 284.963 221.624C285.188 222.411 286.369 223.759 287.888 224.77C290.925 226.849 291.6 226.343 291.094 222.298C290.531 217.748 289.913 217.074 287.944 218.871C286.988 219.77 286.875 219.714 286.313 218.31C286.031 217.467 285.75 216.456 285.75 216.006C285.75 215.557 285.469 214.546 285.188 213.759C284.681 212.467 284.456 212.355 283.781 212.917C283.331 213.31 282.938 214.321 282.938 215.22C282.938 218.478 281.25 216.343 280.406 211.961C280.125 210.445 279.563 209.939 277.144 208.815C273.769 207.186 271.35 205.108 269.156 201.793C267.356 199.097 266.288 198.816 265.388 200.838C264.375 203.085 263.025 202.58 262.238 199.715C261.675 197.636 261.113 196.962 258.581 195.333C250.313 190.052 245.813 180.277 245.813 167.58C245.813 161.401 245.306 160.39 243.338 163.03C242.438 164.266 242.381 164.21 242.719 161.513C242.888 159.94 243.169 157.749 243.338 156.626C243.619 154.94 243.45 154.435 242.55 153.873C241.65 153.311 241.538 152.862 241.931 151.738C242.213 150.952 242.663 147.806 242.944 144.716C243.45 139.997 243.788 138.761 245.363 136.121C248.513 130.896 252.788 127.862 260.438 125.39C263.981 124.267 271.969 122.469 273.544 122.469C275.231 122.469 281.531 131.907 280.519 132.918C280.406 133.087 278.719 132.132 276.863 130.84C274.219 128.986 272.813 128.424 270.45 128.199L267.469 127.975L269.325 129.885C270.338 130.952 273.263 132.975 275.85 134.435C280.969 137.3 284.963 141.064 284.344 142.581C283.275 145.334 283.388 146.682 284.625 148.03C286.088 149.547 286.088 149.94 284.569 172.58C283.613 186.85 284.513 193.479 288 197.917C289.013 199.153 289.406 199.378 289.744 198.76C290.531 197.58 290.306 194.715 289.35 192.074C288.113 188.76 288.113 178.198 289.35 167.412C290.475 157.749 290.644 147.244 289.688 142.132C289.35 140.109 287.269 133.143 285.019 126.683L280.969 114.885L280.913 99.3236V83.8184L282.263 84.3239C284.063 84.9981 286.313 84.9419 286.313 84.2116C286.313 82.7509 282.206 66.8524 281.756 66.5716C280.519 65.7851 279.956 69.0996 280.519 73.4815C280.8 75.841 280.913 78.2567 280.8 78.8746C280.519 79.8297 280.463 79.7735 279.788 78.5938C279 77.1331 278.775 71.74 279.338 67.0771C279.675 64.2682 279.788 64.1559 281.756 63.8188C282.881 63.6503 285.919 62.4705 288.563 61.1784C294.188 58.4818 297.956 57.8639 301.106 59.156C302.963 59.9425 303.188 59.9425 303.188 59.2122C303.188 58.7066 302.456 57.583 301.556 56.6841C300.15 55.2797 299.475 55.055 296.888 55.055C295.256 55.055 292.106 55.5606 289.969 56.1223C287.831 56.7403 285.975 57.1336 285.919 57.0774C285.806 56.965 286.313 56.2347 286.988 55.3358C288.394 53.5381 291.15 52.1898 292.781 52.4708C293.4 52.6393 296.325 53.0325 299.25 53.3696ZM521.719 57.2459C543.656 57.4706 559.406 57.8639 560.138 58.201C561.319 58.7066 561.375 58.8189 560.588 59.4931C559.238 60.6166 502.819 60.3919 493.088 59.2122C484.425 58.201 479.531 58.201 472.613 59.2683C469.069 59.774 457.763 60.2796 440.156 60.6728C413.944 61.2908 390.263 62.1335 383.288 62.6953C380.194 62.9761 379.688 62.8638 378.225 61.6278L376.594 60.2234L379.013 59.6054C381.431 58.9313 385.481 59.3245 388.744 60.6166C389.813 61.0099 391.613 60.9537 394.931 60.3919C404.269 58.8189 410.794 58.4257 438.188 57.8639C453.488 57.5268 469.181 57.0212 473.063 56.7965C476.944 56.5156 481.106 56.4033 482.344 56.5156C483.581 56.6841 501.3 56.965 521.719 57.2459ZM374.063 60.3919C374.063 60.5043 373.05 61.1784 371.756 61.8526C368.606 63.4256 362.25 63.9873 347.063 64.0997C340.088 64.0997 331.538 64.3244 328.05 64.493C324.619 64.7177 321.75 64.7177 321.75 64.493C321.75 63.3694 324.619 62.92 331.706 62.92C336.656 62.8638 342.956 62.4143 349.031 61.5717C357.581 60.3919 374.063 59.6054 374.063 60.3919ZM558 63.8188C558 64.9986 556.988 66.7963 555.131 68.9872C554.231 69.9984 553.5 71.122 553.5 71.5153C553.5 72.0771 543.263 72.2456 503.044 72.3018C475.256 72.3579 436.219 72.695 416.25 72.9759C396.281 73.313 367.763 73.5939 352.856 73.5939H325.688L323.888 71.9647L322.031 70.2793L325.125 68.8749C329.4 66.9086 334.913 66.403 338.625 67.6389C341.269 68.5378 341.888 68.5378 345.825 67.7513C354.6 66.0098 360.9 65.6727 390.094 65.1671C406.519 64.8862 421.931 64.493 424.406 64.3244C431.494 63.7065 475.369 63.0885 518.513 63.0323C554.006 62.92 558 63.0323 558 63.8188ZM695.475 73.8748C696.263 76.0096 695.588 78.2567 692.156 84.8296C689.119 90.6721 675 118.143 669.713 128.368C668.925 129.885 668.306 131.008 668.25 130.84C668.25 130.671 669.15 127.75 670.275 124.379C672.3 118.312 675.169 111.683 682.763 95.1664C685.913 88.3688 689.963 77.8634 691.65 72.0209C691.931 71.0658 694.969 72.5826 695.475 73.8748ZM275.288 78.5938C275.85 81.9644 276.469 88.9868 276.75 94.2114C277.256 104.043 277.2 104.436 274.894 105.222C274.556 105.335 274.838 106.908 275.625 109.211C277.2 113.986 277.2 117.188 275.681 118.705L274.556 119.885L273.938 118.312C273.656 117.469 273.375 115.222 273.375 113.312C273.375 109.492 272.531 105.616 271.688 105.616C270.675 105.616 270.394 108.537 271.069 112.357C271.8 116.964 271.856 120.222 271.238 120.222C270.113 120.222 268.875 117.919 268.031 114.323C266.681 108.481 265.05 105.896 264.15 108.2C263.588 109.717 263.756 111.514 264.881 114.717C265.894 117.582 265.894 120.447 264.938 121.065C264.431 121.346 263.194 118.424 261.844 113.874C260.888 110.503 259.369 108.425 257.906 108.425C256.613 108.425 256.894 110.391 258.75 113.874C259.763 115.784 260.438 117.863 260.438 119.155C260.438 123.256 258.469 121.233 256.106 114.717C254.588 110.559 252.956 108.425 251.269 108.425C249.694 108.425 250.313 111.009 252.9 114.829C254.25 116.907 255.038 118.818 255.263 120.559C255.656 124.042 254.981 123.593 251.213 117.694C247.388 111.795 244.688 109.717 244.688 112.582C244.688 113.368 245.7 115.054 247.106 116.627C248.456 118.143 249.863 119.941 250.2 120.615C251.044 122.076 251.1 124.716 250.313 124.716C250.031 124.716 247.838 122.413 245.475 119.66C243.113 116.851 241.088 114.604 241.031 114.604C240.919 114.604 240.469 114.436 239.963 114.267C239.288 113.986 239.063 114.267 239.063 115.447C239.063 116.57 239.963 117.863 242.381 120.278C245.644 123.537 247.5 126.626 246.656 127.413C246.263 127.806 244.575 126.008 241.2 121.402C239.006 118.424 235.856 116.851 235.294 118.312C234.956 119.267 236.025 120.391 240.581 123.986C242.1 125.222 242.1 125.222 240.919 125.278C240.188 125.278 238.669 124.435 237.544 123.368C234.675 120.84 232.931 119.941 232.144 120.728C231.581 121.289 233.606 123.537 237.319 126.289C238.275 127.02 239.063 128.143 239.063 128.761C239.063 129.772 238.894 129.716 236.981 128.199C234.506 126.289 230.681 124.155 229.613 124.155C228.15 124.155 230.625 127.469 233.325 128.986C238.331 131.907 240.131 133.761 240.188 136.177C240.188 137.019 239.794 136.851 237.825 135.165C233.719 131.682 228.206 128.256 225 127.188C222.863 126.458 220.331 126.177 216.844 126.177C206.494 126.233 197.269 130.222 177.75 143.143C148.331 162.468 126.45 173.704 102.825 181.513C79.5375 189.209 50.6812 191.175 33.6937 186.176C20.925 182.412 10.35 171.569 6.13124 157.862C4.55624 152.862 4.27499 142.75 5.56874 137.637C7.25624 130.615 12.15 122.75 20.5312 113.481C23.625 110.054 25.0312 108.986 28.0687 107.694C37.35 103.762 50.4 101.852 58.2187 103.312C68.1187 105.11 75.6 112.076 77.5687 121.233C79.4812 130.39 76.6687 139.997 70.425 145.559C65.9812 149.435 63.3375 150.615 58.4437 150.952C50.175 151.57 43.5375 148.536 39.7125 142.525C37.1812 138.48 36.3937 135.165 36.675 129.885C36.9562 124.941 38.8125 120.784 41.9625 117.975C45.2812 115.054 57.2625 114.436 62.1 116.964C66.0937 118.986 68.0625 122.582 68.0625 127.806C68.0625 132.75 66.375 135.727 62.4937 137.75C58.7812 139.716 53.1 139.997 51.5812 138.311C49.2187 135.727 48.2062 130.053 49.5 126.739C50.0062 125.447 50.3437 125.278 53.0437 125.278C58.6687 125.278 60.4125 128.48 56.25 131.233C53.55 133.031 53.6062 133.93 56.475 134.154C59.1187 134.379 60.525 133.199 61.3687 130.109C62.1 127.301 61.3125 124.042 59.4562 122.75C58.05 121.795 53.1 121.626 49.95 122.469C45.8437 123.649 42.2437 128.199 42.1875 132.357C42.1875 136.626 46.125 141.457 51.1312 143.143C53.55 143.986 58.6125 143.986 61.3687 143.143C64.2375 142.3 67.7812 139.267 69.3 136.289C71.2125 132.637 71.0437 126.57 68.7937 121.851C64.6875 113.031 58.275 109.492 49.725 111.233C40.725 113.087 34.0875 119.604 31.2187 129.435C30.4875 131.907 30.3187 134.098 30.4875 138.143C30.825 144.603 32.0062 147.637 35.775 151.682C40.275 156.457 46.0125 158.423 55.6875 158.423C65.6437 158.423 76.1625 155.39 90.0562 148.48C94.8375 146.064 99.2812 144.21 99.9562 144.266C100.575 144.323 103.106 145.334 105.581 146.457C108 147.581 111.094 148.761 112.5 149.154C114.694 149.716 115.031 149.997 115.369 151.682C116.606 157.637 125.044 158.929 130.05 153.929C131.906 152.075 132.188 151.457 132.188 149.21C132.188 147.749 131.906 146.064 131.569 145.446C131.063 144.435 131.4 143.817 134.325 140.84C138.713 136.233 139.781 133.368 139.781 126.402V121.065L141.975 119.098C147.881 113.761 161.156 104.885 173.419 98.0877L177.188 95.9529V99.0989C177.188 103.2 178.088 105.222 182.25 110.728C184.106 113.2 185.738 115.896 185.963 116.739C186.413 119.042 186.975 119.829 189 121.177C191.588 122.975 195.413 122.862 201.656 120.84C204.469 119.941 207.506 119.042 208.519 118.818C211.106 118.312 214.088 114.717 215.213 110.896C216.9 104.998 214.931 97.0203 210.094 90.1104C207.731 86.7958 207.563 86.7396 203.963 85.9531C201.938 85.5599 200.25 84.9981 200.25 84.8296C200.25 83.5374 202.781 82.4701 206.775 82.0768C209.25 81.7959 216.113 80.1667 222.075 78.4252C237.938 73.8186 246.094 72.695 263.869 72.5265L274.388 72.4703L275.288 78.5938ZM675.338 74.886C676.238 77.2455 663.469 105.222 652.838 124.435C645.469 137.694 643.725 141.795 642.263 149.322C641.025 156.064 639.563 160.109 631.856 178.816C626.906 190.895 613.8 217.804 610.931 221.793C609.581 223.759 607.275 225.5 605.419 226.062C604.294 226.399 604.125 226.287 604.125 224.883C604.181 222.635 606.319 217.804 609.356 213.029C613.575 206.512 624.713 183.816 626.231 178.591C628.088 172.412 628.988 170.389 631.069 167.749C632.025 166.569 632.813 164.996 632.813 164.322C632.813 162.861 634.725 157.3 637.763 149.716C640.744 142.413 641.081 141.008 639.9 141.008C638.944 141.008 637.369 143.817 636.188 147.469C635.794 148.704 632.869 155.895 629.663 163.479C625.331 173.648 622.35 179.715 618.188 186.794C614.306 193.366 611.55 198.872 609.356 204.49C605.588 214.096 601.481 222.467 600.581 222.467C599.456 222.411 597.938 221.006 597.938 219.939C597.938 219.433 598.388 218.31 599.006 217.523C599.569 216.68 601.144 213.872 602.438 211.231C603.731 208.591 606.206 204.49 607.838 202.13C612.169 196.063 614.081 191.85 619.031 177.805C624.263 163.03 627.581 155.783 632.475 148.311C636.975 141.514 637.256 140.896 640.969 132.076C646.481 119.042 661.95 84.7734 664.481 80.1667C665.888 77.6387 667.181 75.6163 667.463 75.6725C668.813 75.9534 667.913 78.5376 662.4 89.7733C659.194 96.4585 654.131 107.75 651.206 114.885C648.281 121.964 644.963 129.772 643.894 132.132C642.319 135.559 642.094 136.514 642.713 136.514C644.456 136.514 645.694 135.334 646.65 132.75C647.156 131.233 649.463 125.896 651.656 120.784C653.906 115.672 657.113 108.368 658.744 104.492C660.375 100.616 662.738 95.7844 663.919 93.6496C665.1 91.571 667.013 87.4138 668.081 84.3801C670.163 78.5376 670.894 77.1331 672.863 75.2792C674.269 73.9871 674.944 73.8748 675.338 74.886ZM547.875 76.1219C549.731 77.0769 549.675 77.3016 547.088 82.4701L545.681 85.2228L541.688 85.8969C539.494 86.2902 536.794 86.4587 535.669 86.234C534.206 85.9531 533.419 86.1217 532.631 86.852C531.281 88.0879 531.281 89.0991 532.688 90.8407C533.306 91.6272 533.813 92.8631 533.813 93.5934C533.813 95.4473 534.825 97.8068 535.95 98.6495C536.456 99.0427 538.481 99.6607 540.338 99.9977L543.825 100.672L543.038 102.133C541.575 104.941 542.363 109.211 544.725 111.177C545.288 111.627 545.625 112.806 545.625 114.155C545.625 117.132 546.975 120.11 548.663 120.896C549.956 121.458 550.125 121.851 550.125 124.267C550.125 125.784 549.394 129.267 548.438 132.132C547.538 134.941 546.75 138.424 546.75 139.884V142.525L543.994 142.862C542.419 143.03 539.888 143.761 538.369 144.435C535.556 145.615 535.5 145.671 535.5 148.087C535.5 151.008 536.4 153.255 537.863 153.648C539.325 154.154 539.156 154.828 537.188 156.289C535.388 157.581 534.544 159.772 533.194 166.569C532.575 169.771 530.775 174.153 530.1 174.153C528.975 174.153 532.294 161.794 534.431 157.974C535.613 155.839 535.95 154.772 535.613 154.041C535.331 153.536 534.938 152.188 534.713 151.12C534.206 148.255 532.8 146.401 531.788 147.244C530.831 148.03 530.831 149.884 531.844 154.154C532.575 157.356 532.35 159.547 531.056 160.333C530.719 160.558 530.606 159.603 530.831 157.693C531.113 155.109 530.944 154.491 529.763 153.086C528.019 151.064 526.781 151.626 527.344 154.154C527.513 155.109 527.85 157.019 528.019 158.423L528.3 160.895L526.275 159.098C525.15 158.086 523.688 157.3 523.125 157.3C522.169 157.3 522 156.907 522 154.659C522 152.974 522.338 151.682 522.956 150.952C523.913 149.94 523.913 149.884 522.844 149.098C522.225 148.648 521.438 148.424 521.044 148.536C519.581 149.098 520.369 146.626 522.113 144.997C523.519 143.648 523.8 143.143 523.294 142.637C522.731 142.075 522.113 142.188 520.369 142.918C517.106 144.435 516.431 143.761 519.188 141.682C520.538 140.727 521.888 139.828 522.225 139.66C522.619 139.491 522.563 139.21 522 138.817C520.988 138.143 518.738 138.592 517.331 139.772C516.825 140.222 516.206 140.446 516.038 140.278C515.363 139.604 516.319 138.255 518.175 137.3C522.056 135.334 523.294 133.143 520.538 133.143C519.638 133.143 518.006 133.986 516.6 135.109C513.956 137.3 512.606 137.694 513.506 136.064C513.844 135.446 515.475 134.042 517.219 132.806C520.088 130.84 520.313 130.615 519.413 129.941C518.006 128.93 518.006 128.93 514.35 131.739C510.863 134.491 510.188 134.716 510.188 133.424C510.188 132.581 511.031 131.626 514.631 128.593C515.756 127.638 516.375 126.57 516.375 125.615C516.375 123.424 515.306 123.817 512.156 127.132C509.063 130.503 507.375 131.458 507.375 129.941C507.375 129.379 508.5 127.806 509.906 126.402C511.706 124.604 512.606 123.143 512.831 121.739C513.056 120.166 512.944 119.66 512.325 119.66C511.369 119.66 508.556 122.582 506.869 125.39C506.138 126.57 505.35 127.525 505.069 127.525C503.944 127.525 504.675 125.334 506.588 123.087C507.938 121.57 508.669 120.11 508.725 118.93C508.781 117.301 508.613 117.132 507.094 116.964C506.194 116.851 505.238 116.514 505.069 116.177C504.45 115.222 502.425 116.739 500.85 119.267C499.163 122.02 497.981 123.031 496.575 123.031C494.775 123.031 495.338 120.278 497.7 117.469C498.881 116.065 500.175 114.323 500.513 113.649C501.413 111.964 501.356 110.11 500.4 110.11C498.938 110.11 497.194 112.076 495.394 115.728C493.65 119.211 492.075 120.896 491.288 120.11C491.063 119.885 491.85 117.75 492.975 115.391C494.831 111.458 495.675 107.301 494.55 107.301C493.369 107.301 491.006 110.728 489.713 114.267C488.025 118.986 487.35 119.773 486.225 118.312C485.269 116.964 485.55 115.952 488.025 111.402C489.994 107.807 490.444 105.616 489.206 105.616C487.744 105.616 486.113 107.863 484.931 111.346C484.256 113.312 483.469 115.278 483.188 115.728C482.681 116.458 482.569 116.458 482.063 115.728C481.275 114.492 481.388 113.256 482.625 110.11C484.088 106.402 484.088 104.492 482.681 104.492C481.106 104.492 480.375 105.672 479.813 109.155C479.138 113.481 478.406 114.604 476.494 114.604C474.919 114.604 474.863 114.548 475.369 112.413C475.65 111.177 476.325 108.93 476.888 107.469C478.744 102.807 478.856 101.683 477.619 101.683C475.875 101.683 474.356 104.155 473.625 108.256C472.613 113.93 471.319 115.391 468.338 114.267C466.931 113.705 467.269 111.851 469.631 107.189C471.938 102.582 472.219 100.054 470.194 101.121C468.506 102.076 467.55 103.874 466.256 108.818C465.525 111.514 464.738 113.424 464.4 113.312C463.331 112.975 463.388 110.728 464.569 106.739C465.75 102.807 466.144 98.8742 465.3 98.8742C465.019 98.8742 464.4 99.3236 463.894 99.8854C463.05 100.84 462.431 103.088 461.531 109.042C461.363 110.11 460.856 111.514 460.463 112.132C459.675 113.144 459.619 113.144 459.225 111.514C459 110.615 459.113 107.807 459.45 105.279C459.9 102.133 459.956 100.222 459.563 99.2112C459.281 98.4247 458.888 97.7506 458.775 97.7506C457.988 97.7506 456.75 101.402 456.413 104.661C456.019 108.762 455.513 109.885 454.5 109.267C453.938 108.93 453.881 107.413 454.163 103.031C454.444 98.2 454.388 97.1888 453.769 97.1888C452.025 97.1888 451.406 98.9865 451.238 104.998C451.125 108.256 450.788 111.177 450.563 111.402C449.719 112.301 447.806 110.672 447.469 108.818C447.244 107.807 447.525 104.604 448.031 101.739C448.538 98.8742 448.819 96.4023 448.65 96.2338C448.031 95.6158 445.95 96.8517 445.444 98.1439C445.163 98.8742 444.938 101.458 444.881 103.818C444.825 109.604 444.375 110.896 442.575 111.121C441.788 111.233 440.719 110.896 440.156 110.335C439.313 109.436 439.2 108.649 439.538 104.099C439.875 99.773 439.819 98.8742 439.144 98.8742C437.456 98.8742 436.894 100.56 436.838 105.503C436.781 109.548 436.613 110.391 435.881 110.559C435.375 110.672 434.531 110.278 433.969 109.773C433.125 108.93 433.069 108.144 433.406 104.211C433.856 98.6495 433.463 98.1439 429.075 98.4247C426.713 98.5371 426.15 98.7618 426.375 99.436C426.825 100.84 426.544 109.042 425.981 109.604C425.7 109.885 424.969 109.773 424.238 109.211C422.775 108.2 422.719 106.739 423.844 102.02C424.294 100.166 424.519 98.4809 424.35 98.2C423.675 97.1327 422.438 97.863 421.988 99.5483C421.425 101.795 420.638 101.739 420.019 99.436C419.794 98.5371 419.231 97.7506 418.781 97.7506C417.263 97.7506 416.7 99.8854 417.094 104.155C417.544 108.593 416.813 110.166 414.056 110.953L412.706 111.346L413.1 105.11C413.438 99.6607 413.325 98.9304 412.594 99.2112C411.188 99.773 410.625 101.402 410.625 105.054C410.625 108.705 409.95 110.672 408.656 110.672C407.306 110.672 407.138 109.66 407.869 105.279C408.713 99.9416 408.15 98.3124 405.394 98.3124C404.381 98.3124 403.256 98.0315 402.975 97.7506C401.906 96.6832 400.838 98.818 400.613 102.47C400.444 105.335 400.613 106.121 401.625 107.413C402.3 108.312 403.2 108.986 403.65 108.986C404.156 108.986 404.438 109.38 404.325 109.941C404.156 110.728 403.538 110.953 401.344 110.953L398.531 110.896V105.616C398.531 101.515 398.306 99.9416 397.575 98.9304L396.619 97.5821L396.338 98.9304C396.169 99.6607 395.944 102.245 395.775 104.661C395.494 109.492 394.481 111.402 392.4 111.121C391.331 110.953 391.219 110.447 390.938 104.661C390.769 101.234 390.431 98.2 390.206 97.9192C389.925 97.6944 389.363 97.9753 388.856 98.5933C388.181 99.4922 388.069 100.672 388.35 104.155C388.688 108.93 388.181 110.672 386.438 110.672C384.75 110.672 384.188 108.874 384.356 104.043C384.469 99.2112 384.188 98.3124 382.781 99.436C382.163 99.9416 381.938 101.29 381.938 104.773C381.938 109.66 381.319 110.953 379.294 110.559C377.494 110.222 376.875 107.919 377.269 103.2C377.606 99.0989 377.55 98.8742 376.481 98.8742C374.231 98.8742 373.781 100.222 374.569 104.829C375.019 107.582 375.075 109.267 374.681 109.941C374.175 110.84 374.063 110.784 373.556 109.38C373.219 108.481 372.938 106.739 372.938 105.447C372.938 102.357 371.925 98.7618 371.138 98.9865C369.563 99.5483 369.338 101.009 370.294 104.941C370.8 107.076 371.25 109.155 371.25 109.436C371.25 110.503 369.506 111.795 368.044 111.795H366.581L367.088 107.694C367.819 101.009 367.706 99.773 366.525 99.5483C365.119 99.2674 364.388 100.11 363.994 102.638C363.769 103.986 363.319 104.829 362.7 104.941C361.913 105.11 361.856 104.829 362.25 102.975C362.813 100.672 362.588 100.222 360.9 99.8854C359.438 99.6607 358.988 101.571 359.494 105.616C359.944 108.762 359.325 111.177 357.919 111.683C356.906 111.964 356.063 109.436 356.063 106.177C356.063 102.582 355.163 100.11 354.206 101.065C353.756 101.515 353.588 103.312 353.7 106.402C353.813 110.166 353.7 111.29 352.969 112.02C350.55 114.379 349.65 112.526 349.763 105.447C349.819 101.065 349.763 100.503 348.919 100.672C347.063 101.009 346.444 103.312 346.838 108.256C347.231 113.031 347.006 113.537 345.15 112.188C344.363 111.627 344.025 110.335 343.744 107.413C343.35 103.031 343.069 102.47 341.663 103.031C340.875 103.312 340.819 103.986 341.156 107.807C341.606 112.806 340.931 114.099 339.075 111.795C338.344 110.84 338.063 109.604 338.063 106.739C338.063 102.526 337.163 100.897 335.531 102.245C334.463 103.144 334.463 105.11 335.531 108.649C335.981 110.166 336.375 111.739 336.375 112.076C336.375 112.975 331.875 113.705 329.625 113.2C327.994 112.863 327.994 112.806 327.825 108.256L327.656 103.649H325.969C324.45 103.649 324.338 103.481 324.563 102.245C324.9 100.503 324.956 85.1666 324.619 80.7847L324.338 77.5826L384.244 77.2455C483.806 76.6837 541.013 76.1219 541.463 75.6725C542.194 74.9983 546.188 75.2231 547.875 76.1219ZM654.525 77.6949C654.694 78.1443 650.194 88.5374 644.569 100.897C627.75 137.806 605.306 187.58 602.888 193.254C598.05 204.658 597.15 206.681 593.888 213.085C589.5 221.68 586.688 223.703 586.688 218.31C586.688 216.343 587.081 215.501 589.163 213.029C592.088 209.602 593.606 206.512 597.488 195.782C600.694 187.018 604.069 178.985 606.094 175.558C610.088 168.648 614.813 158.311 614.813 156.513C614.813 152.525 617.794 145.783 625.725 131.907C630 124.379 645.019 93.2002 648.394 84.8296C649.913 81.0094 652.669 77.0208 653.794 76.9646C654.019 76.9646 654.356 77.3016 654.525 77.6949ZM660.431 77.5264C661.838 78.3129 661.781 79.5488 660.038 82.5824C659.25 83.9869 657.788 87.2452 656.719 89.8856C653.625 97.9192 649.913 106.29 644.119 118.424C641.081 124.829 637.875 131.963 637.031 134.267C634.781 140.334 633.319 142.974 629.663 147.749C625.838 152.749 623.981 156.682 618.469 171.007C613.125 184.94 611.944 187.636 603.788 203.366C600.019 210.613 596.25 218.141 595.406 220.107C594.113 223.029 593.719 223.478 593.269 222.692C592.088 220.669 593.381 216.68 597.15 210.501C601.481 203.422 606.713 192.58 610.763 182.299C612.338 178.254 614.813 171.962 616.219 168.255C617.681 164.547 623.138 153.03 628.369 142.693C633.544 132.357 638.775 121.458 640.013 118.537C641.25 115.615 644.4 108.031 647.044 101.683C653.963 84.9419 657.675 76.9646 658.575 76.9646C658.969 76.9646 659.813 77.2455 660.431 77.5264ZM645.581 84.9419C644.625 87.5261 640.969 95.3911 637.425 102.47C630.844 115.84 627.469 123.368 625.781 128.649C625.219 130.334 624.431 131.963 623.981 132.188C623.588 132.413 622.35 133.93 621.225 135.559C618.694 139.21 618.975 138.311 623.925 125.84C626.119 120.447 628.369 114.379 628.988 112.357C629.775 109.829 630.731 108.031 632.25 106.458C634.05 104.604 634.781 103.088 636.469 97.7506C639.225 88.8744 641.081 85.1104 643.894 82.5262C645.188 81.3465 646.538 80.3353 646.819 80.3353C647.1 80.3353 646.538 82.4139 645.581 84.9419ZM640.688 83.7622C640.688 84.6049 639.506 87.1329 637.988 89.38C634.894 94.2114 634.725 94.6046 628.594 108.705C609.863 151.682 598.894 175.277 597.544 175.277C596.7 175.277 598.275 169.378 600.3 165.165C603 159.378 604.688 154.772 604.688 152.974C604.688 152.244 605.644 150.615 606.938 149.21C608.513 147.469 609.75 145.278 611.1 141.514C616.05 127.862 623.25 111.065 631.238 94.3237C636.863 82.6386 640.631 78.4252 640.688 83.7622ZM632.419 84.9419C630.394 90.1665 623.7 105.953 618.525 117.638C615.544 124.379 611.944 133.143 610.481 137.019C607.781 144.266 605.25 148.592 602.663 150.277C601.369 151.12 601.256 151.457 601.594 153.648C601.875 155.671 601.65 156.626 600.3 159.378C599.4 161.176 596.419 167.805 593.719 174.153C586.181 191.85 580.331 202.861 574.988 209.49C573.413 211.4 571.444 210.726 569.194 207.523C567.506 204.995 567.45 204.883 568.181 202.636C568.631 201.344 570.544 197.636 572.569 194.378C576.563 187.861 579.938 181.119 579.938 179.771C579.938 179.266 580.894 177.58 582.131 176.007C584.438 172.917 588.375 163.816 588.375 161.513C588.375 160.614 589.106 159.322 590.344 158.086C591.975 156.457 592.313 155.727 592.313 153.761C592.313 151.963 593.044 150.109 595.463 145.783C598.95 139.491 600.019 137.076 603.844 127.02C605.306 123.143 609.413 114.211 612.9 107.132C616.444 99.9977 620.1 92.0766 621.113 89.4924C622.519 85.7846 623.138 84.8296 624.038 84.7734C624.713 84.7734 626.513 84.2678 628.031 83.706C629.606 83.1442 631.406 82.6386 632.081 82.6386C633.375 82.5824 633.375 82.5824 632.419 84.9419ZM197.663 86.1217C200.363 86.1779 202.5 87.9756 202.5 90.1104C202.5 92.1328 201.038 92.0204 198.731 89.7733C197.213 88.3126 196.763 88.1441 196.088 88.7621C195.3 89.38 195.3 89.6047 196.369 91.0654C196.988 91.9081 198.225 93.2002 199.125 93.8181C200.7 94.9417 200.869 94.9417 202.5 94.099C203.625 93.481 204.356 92.6384 204.581 91.5148L204.919 89.8294L206.269 91.1216C208.238 92.9193 210.206 96.5147 211.275 99.9416C212.288 103.368 212.006 104.099 209.981 103.312C208.969 102.975 208.406 102.975 208.125 103.312C207.956 103.649 207.338 102.975 206.719 101.908C205.481 99.5483 202.95 98.0877 201.038 98.5371C199.856 98.8742 199.744 99.0989 200.25 99.9977C200.588 100.616 201.881 101.627 203.063 102.245C205.481 103.481 205.65 104.043 205.313 109.267C205.2 111.571 203.4 115.728 202.556 115.728C201.938 115.728 197.663 112.582 197.156 111.795C196.256 110.391 191.531 107.863 189.731 107.863C188.213 107.863 187.819 107.582 187.538 106.458C187.256 105.335 187.65 104.436 189.225 102.413C190.35 101.009 191.25 99.3236 191.25 98.7618C191.25 97.5821 192.263 97.4697 193.781 98.5371C195.694 99.8292 197.438 100.166 197.438 99.2112C197.438 98.0315 193.275 94.6046 190.35 93.4249C189 92.8631 187.875 92.0766 187.875 91.6833C187.875 91.2901 188.55 89.7171 189.338 88.1441L190.744 85.279L193.106 85.6722C194.4 85.8408 196.481 86.0655 197.663 86.1217ZM617.569 91.6833C615.544 96.7394 602.888 121.964 602.55 121.683C602.438 121.514 602.888 119.436 603.563 117.02C605.025 111.571 608.4 104.548 611.381 100.56C612.675 98.8742 613.688 97.0765 613.688 96.627C613.688 96.1214 614.081 94.3799 614.588 92.7507C615.488 89.7171 617.063 87.6385 618.413 87.6385C619.088 87.6385 618.863 88.5374 617.569 91.6833ZM612.956 88.8182C613.913 89.7733 611.719 95.2787 607.781 101.964C604.125 108.144 602.213 112.638 601.594 116.29C601.2 118.761 597.206 126.683 580.219 158.704C576.169 166.401 570.713 176.794 568.181 181.737C565.65 186.681 562.669 191.962 561.488 193.535C559.575 196.119 559.406 196.232 559.238 194.996C559.125 194.265 559.575 192.13 560.25 190.22C561.544 186.681 562.5 184.996 568.8 174.603C570.938 171.176 573.019 166.906 573.694 164.659C574.65 161.569 575.325 160.333 576.844 159.154C577.913 158.255 578.813 157.187 578.813 156.682C578.813 154.547 580.781 150.446 583.313 147.3C585.394 144.716 586.744 142.188 588.6 137.244C591.975 128.256 594.675 121.739 598.331 114.042C601.988 106.29 611.55 88.2003 612 88.2003C612.169 88.2003 612.619 88.4812 612.956 88.8182ZM706.95 91.5148C706.669 92.3013 705.881 93.8743 705.206 94.9417C703.35 97.9192 703.294 95.672 705.094 91.7395C706.163 89.38 706.669 88.7059 707.063 89.2677C707.344 89.7171 707.288 90.6721 706.95 91.5148ZM604.688 96.2338C603.956 98.1439 601.819 102.357 599.906 105.616C595.35 113.312 594.563 114.885 587.813 130.053C580.95 145.559 580.556 146.233 571.05 163.479C566.888 171.064 562.219 179.771 560.7 182.861C558.225 188.029 558 188.254 558.338 185.951C558.956 181.457 561.713 175.502 567.394 166.176C576.45 151.401 578.475 147.3 588.938 123.031C591.694 116.683 594.731 109.773 595.688 107.582L597.431 103.649L595.969 105.054C593.775 107.132 591.131 111.739 587.531 119.941C582.469 131.345 574.425 147.637 568.238 158.929C565.144 164.603 561.488 171.738 560.194 174.771C558.9 177.861 556.931 181.288 555.919 182.468L554.006 184.546L554.4 182.018C555.019 177.749 556.706 174.097 561.431 166.625C567.394 157.187 571.838 148.536 579.094 132.581C589.388 109.941 596.644 96.0652 598.219 96.0652C599.288 96.0652 599.288 97.6944 598.219 99.0989C597.263 100.335 597.15 101.121 597.881 101.121C598.163 101.121 599.963 98.7057 601.931 95.7282C604.8 91.5148 605.588 90.6159 605.7 91.6272C605.813 92.3013 605.363 94.3799 604.688 96.2338ZM590.231 103.649C589.163 105.616 584.381 115.559 579.6 125.671C574.763 135.84 569.588 146.514 568.013 149.435C564.413 156.176 557.381 168.086 557.1 167.861C556.369 167.075 559.631 159.491 569.588 139.154C583.369 111.121 590.231 98.7618 591.694 99.6607C591.975 99.8292 591.3 101.627 590.231 103.649ZM431.213 103.425C431.719 104.323 431.55 109.099 430.988 109.66C430.65 109.998 430.088 109.773 429.525 109.211C428.794 108.481 428.625 107.75 428.963 105.953C429.131 104.717 429.413 103.481 429.581 103.2C429.919 102.638 430.763 102.694 431.213 103.425ZM580.781 112.132C577.181 117.975 563.794 144.66 557.381 158.592C554.906 164.041 554.288 164.996 554.006 163.929C553.275 161.345 554.288 158.03 557.775 151.345C559.744 147.637 562.95 140.783 564.975 136.177C570.6 123.087 571.838 120.447 575.156 114.885C578.194 109.66 583.031 104.548 583.988 105.503C584.269 105.784 582.863 108.705 580.781 112.132ZM195.638 114.099C196.313 114.379 197.156 115.278 197.494 116.121C198 117.469 197.888 117.806 196.875 118.649C195.019 120.166 193.5 119.941 193.5 118.256C193.5 117.413 192.881 116.233 192.094 115.503C189.394 112.975 190.969 112.357 195.638 114.099ZM349.313 116.009C349.313 116.795 347.513 119.66 345.544 122.076C343.744 124.211 343.35 125.053 343.575 126.458C343.744 127.638 343.181 129.604 341.663 132.862C340.425 135.503 339.244 137.581 338.963 137.637C338.175 137.637 339.188 133.536 340.65 131.064C342.225 128.312 342.281 128.087 341.1 128.087C338.85 128.087 342.619 119.323 345.825 117.132C347.738 115.84 349.313 115.334 349.313 116.009ZM131.625 118.143C134.438 119.604 135 120.559 133.369 121.065C132.806 121.233 130.669 122.582 128.7 124.042C122.513 128.649 122.4 128.705 119.081 128.312C117.169 128.087 114.469 128.312 111.712 128.874C106.144 129.997 106.312 130.053 106.312 128.424C106.312 127.638 106.087 126.851 105.75 126.683C104.738 126.065 105.187 125.447 108.169 123.48C117.562 117.245 126.169 115.278 131.625 118.143ZM334.125 119.997C332.213 125.503 330.356 126.57 330.975 121.795C331.425 118.593 332.55 116.851 334.181 116.851C335.138 116.851 335.138 117.02 334.125 119.997ZM340.65 121.458C339.525 123.087 338.625 124.716 338.625 125.11C338.625 126.121 337.556 126.008 337.163 124.997C336.769 124.098 337.838 122.301 340.538 118.986C343.013 116.009 343.069 117.806 340.65 121.458ZM565.425 129.042C562.219 136.401 558.9 142.862 558.675 142.132C558.338 141.12 559.631 135.503 560.644 133.424C562.275 130.222 566.663 123.986 566.831 124.548C566.944 124.885 566.325 126.907 565.425 129.042ZM599.681 130.896C598.613 133.986 594.9 142.413 591.356 149.547C587.813 156.738 583.256 166.288 581.231 170.783C577.013 180.221 567.113 199.546 566.213 200.108C565.875 200.333 565.144 200.557 564.638 200.557C562.163 200.557 564.525 193.029 569.869 183.704C572.119 179.827 575.719 173.03 577.856 168.535C582.075 159.828 584.775 155.221 587.25 152.525C588.15 151.513 589.275 149.154 590.006 146.851C590.681 144.547 592.2 141.345 593.55 139.323C596.644 134.885 596.588 134.997 597.263 132.02C597.6 130.615 598.388 128.256 599.063 126.739C599.963 124.604 600.356 124.098 600.919 124.66C601.425 125.166 601.144 126.57 599.681 130.896ZM335.081 129.604C335.306 132.525 335.138 133.93 334.463 135.278C333.056 137.974 332.438 137.469 332.438 133.761C332.438 131.233 332.213 130.39 331.538 130.109C330.75 129.829 330.806 129.491 332.1 127.862C332.888 126.795 333.563 125.615 333.563 125.222C333.563 124.66 333.731 124.66 334.181 125.11C334.519 125.447 334.969 127.525 335.081 129.604ZM218.869 130.503C218.363 131.008 209.25 132.076 208.744 131.682C208.35 131.345 211.669 130.278 214.538 129.885C217.913 129.379 219.769 129.604 218.869 130.503ZM129.881 132.581C131.231 132.581 131.231 132.581 130.163 133.761C129.263 134.716 129.263 134.997 129.938 135.39C130.388 135.727 131.625 135.952 132.638 135.952C133.988 135.952 134.438 136.177 134.438 136.963C134.438 138.929 133.256 139.323 127.631 139.323C122.625 139.323 122.006 139.435 120.544 140.671C119.644 141.457 118.406 143.087 117.844 144.323C116.944 146.345 116.606 146.626 114.975 146.626C113.344 146.626 107.212 144.66 106.2 143.873C105.806 143.536 106.369 138.424 107.156 134.997C107.606 133.087 109.294 132.469 116.269 131.963C119.813 131.682 123.525 131.064 124.481 130.671C126.169 129.941 126.338 129.997 127.406 131.233C128.081 131.963 129.15 132.581 129.881 132.581ZM234.394 135.222C235.631 136.064 237.6 139.547 237.263 140.502C237.15 140.783 235.744 139.772 234.113 138.199C230.119 134.379 230.231 132.581 234.394 135.222ZM216.731 136.963C217.069 138.817 217.406 139.323 218.363 139.323C219.544 139.323 219.544 139.323 218.25 140.727C216.9 142.132 214.144 142.918 207.563 143.592C205.538 143.761 203.456 144.21 202.894 144.491C201.431 145.278 201.263 144.828 201.713 141.738L202.106 139.042L202.781 140.952C204.019 144.603 206.1 143.705 206.663 139.323C207.056 136.177 207.956 135.615 208.519 138.199C208.688 139.098 209.025 139.884 209.194 139.884C210.094 139.884 210.938 138.424 210.938 137.019C210.938 136.177 211.219 135.278 211.5 135.109C211.838 134.941 212.063 135.39 212.063 136.177C212.063 136.907 212.231 137.918 212.4 138.424C213.019 140.053 213.75 139.379 213.75 137.188C213.75 134.772 214.144 134.154 215.381 134.379C215.888 134.491 216.45 135.503 216.731 136.963ZM128.363 146.626C128.194 149.266 127.856 151.12 127.35 151.682C126.675 152.356 126.563 152.131 126.563 149.772C126.563 147.693 126.225 146.57 125.156 145.165C123.188 142.581 123.356 142.019 126.169 142.244L128.531 142.413L128.363 146.626ZM226.125 144.491C226.069 145.783 224.55 152.3 224.213 152.637C223.819 153.03 222.75 150.334 222.75 148.873C222.75 148.311 222.469 147.132 222.131 146.233C221.344 144.154 220.5 145.446 220.5 148.761C220.5 151.57 219.713 153.367 218.531 153.367C217.519 153.367 217.519 152.974 218.363 149.828C218.7 148.48 218.813 146.907 218.588 146.289C218.194 145.278 218.138 145.278 217.463 146.176C216.506 147.525 216 147.469 216 146.064C216 144.491 217.744 143.873 222.356 143.873C225 143.817 226.125 144.042 226.125 144.491ZM231.3 144.772C232.875 145.727 232.931 145.896 232.594 148.592C232.425 150.109 231.975 152.412 231.694 153.648C231.188 155.558 231.019 155.727 230.513 154.828C230.175 154.266 230.063 152.412 230.175 150.783C230.456 147.637 229.556 146.738 228.938 149.435C228.769 150.165 228.319 150.839 227.925 151.008C227.419 151.176 227.25 150.165 227.25 147.525C227.25 144.154 227.363 143.817 228.431 143.817C229.05 143.817 230.344 144.266 231.3 144.772ZM187.538 146.794C188.606 149.772 185.906 154.94 184.444 152.749C183.375 151.176 185.006 144.66 186.356 145.109C186.694 145.221 187.256 145.952 187.538 146.794ZM550.35 149.154C549.731 151.12 547.819 153.929 547.256 153.592C546.975 153.423 546.75 151.57 546.75 149.379V145.502L548.719 146.738C550.181 147.749 550.575 148.311 550.35 149.154ZM544.219 150.221C544.444 151.289 544.106 153.423 543.319 155.895C541.8 160.614 541.238 159.435 542.25 153.873C542.644 151.794 542.813 149.435 542.588 148.536C542.25 147.188 542.306 147.075 543.038 147.693C543.544 148.087 544.05 149.21 544.219 150.221ZM182.25 152.412C182.25 154.716 181.463 156.738 180.563 156.738C179.831 156.738 179.831 155.165 180.675 151.738C181.406 148.536 182.25 148.873 182.25 152.412ZM551.813 152.637C551.813 154.828 550.181 159.21 548.663 161.064L547.369 162.637L547.313 161.232C547.313 159.659 550.744 151.12 551.419 151.12C551.644 151.12 551.813 151.794 551.813 152.637ZM610.875 159.266C610.538 160.502 608.513 164.772 606.375 168.816C604.294 172.805 599.85 182.692 596.531 190.726C593.213 198.76 589.725 206.905 588.825 208.759C587.306 211.905 582.581 217.411 581.963 216.793C581.513 216.4 585.9 205.332 588.6 199.939C590.006 197.187 592.256 193.366 593.55 191.513C597.6 185.782 597.713 185.501 598.5 182.187C598.894 180.389 601.706 174.041 605.025 167.524C608.231 161.232 610.931 155.614 610.931 155.109C610.988 154.603 611.156 154.828 611.269 155.614C611.438 156.345 611.269 157.974 610.875 159.266ZM545.625 159.491C545.625 161.457 544.106 165.165 543.375 165.165C542.194 165.165 542.194 163.536 543.319 161.288C543.994 160.053 544.5 158.648 544.5 158.142C544.5 157.637 544.781 157.412 545.063 157.581C545.4 157.749 545.625 158.648 545.625 159.491ZM174.938 164.715C174.938 165.052 173.869 166.345 172.575 167.58C170.663 169.378 169.763 169.828 168.356 169.715C165.938 169.547 164.756 170.895 162.9 175.726C162.056 177.917 160.706 180.333 159.863 181.176L158.344 182.692L157.613 180.839C156.431 177.973 157.725 171.906 159.469 171.906C160.763 171.906 164.644 169.828 167.906 167.356C171.788 164.434 174.938 163.255 174.938 164.715ZM150.188 171.625C150.188 174.153 149.963 174.771 149.006 175.277C147.206 176.288 146.25 175.558 146.25 173.198C146.25 169.491 146.756 168.535 148.556 168.535C150.131 168.535 150.188 168.592 150.188 171.625ZM186.188 175.726C186.188 178.086 183.825 181.007 180.506 182.805C177.019 184.771 170.494 185.445 167.625 184.265L165.881 183.535L167.681 181.681C168.694 180.67 172.238 178.367 175.556 176.681C178.875 174.94 182.025 173.03 182.588 172.356C183.656 171.232 183.656 171.232 184.894 172.749C185.625 173.535 186.188 174.884 186.188 175.726ZM133.425 174.097C132.413 174.94 130.275 176.344 128.644 177.131C125.1 178.816 115.819 182.131 115.481 181.794C115.088 181.4 122.794 177.075 127.013 175.333C134.719 172.075 136.069 171.85 133.425 174.097ZM143.325 175.614C143.494 178.311 143.438 178.423 141.581 179.097C140.569 179.49 139.219 179.771 138.6 179.771C137.644 179.715 137.644 179.659 138.431 179.209C139.275 178.704 139.781 177.749 141.188 173.985C142.031 171.569 143.156 172.412 143.325 175.614ZM154.688 179.546C154.688 183.76 153.788 184.209 152.55 180.558C151.706 178.142 152.325 175.839 153.844 175.839C154.519 175.839 154.688 176.625 154.688 179.546ZM546.188 178.985C547.819 182.692 547.706 183.423 545.513 183.367C543.825 183.31 543.656 183.142 543.769 181.681C543.881 179.715 544.556 176.4 544.838 176.4C544.95 176.4 545.513 177.58 546.188 178.985ZM595.8 180.221C595.519 181.063 594.225 183.367 592.875 185.389C589.95 189.827 590.175 188.029 593.269 181.288C594.9 177.861 595.463 177.131 595.856 177.805C596.138 178.367 596.138 179.322 595.8 180.221ZM150.3 181.007C150.075 184.715 149.006 187.074 147.656 187.074C147.038 187.074 146.813 186.4 146.813 184.715V182.412L145.35 183.76C143.944 185.052 143.888 185.052 143.156 184.041C141.806 182.187 143.775 179.884 147.938 178.479C149.344 177.973 150.469 177.58 150.525 177.524C150.525 177.524 150.413 179.097 150.3 181.007ZM134.438 181.513C134.438 182.075 132.356 183.423 130.725 183.928C129.713 184.265 129.488 184.041 129.263 182.636C129.038 180.951 129.038 180.951 131.738 181.007C133.2 181.007 134.438 181.232 134.438 181.513ZM140.625 187.018C140.625 191.344 141.244 190.67 134.775 193.086C132.131 194.041 131.625 193.535 132.019 190.445C132.188 189.209 132.075 188.198 131.681 187.973C130.613 187.299 131.006 186.681 133.313 185.558C135.956 184.209 136.688 184.715 136.688 187.749C136.688 189.49 136.913 189.883 137.756 189.883C139.05 189.883 139.5 188.816 139.5 185.614C139.5 184.265 139.781 183.142 140.063 183.142C140.4 183.142 140.625 184.827 140.625 187.018ZM550.688 186.007C552.656 189.827 552.15 194.378 549.844 194.378C549.056 194.378 547.65 187.805 548.156 186.288C548.325 185.782 548.55 184.996 548.719 184.546C549.113 183.254 549.45 183.479 550.688 186.007ZM109.294 187.805C109.462 188.254 109.406 189.434 109.181 190.501L108.787 192.355L107.831 191.007C106.875 189.659 106.762 189.659 106.031 190.67C105.637 191.232 105.019 191.513 104.681 191.288C103.444 190.557 104.119 189.378 106.031 188.76C107.1 188.423 108 187.861 108 187.58C108 186.794 108.956 186.962 109.294 187.805ZM57.2062 193.029C58.2187 193.703 58.7812 193.647 60.8062 192.973C63.3937 192.018 66.2625 191.906 67.3875 192.636C67.8375 192.917 68.0625 193.928 67.95 195.276L67.7812 197.411L61.1437 197.636C53.8875 197.861 49.1062 197.13 47.1375 195.501C45.9562 194.546 45.9 194.378 46.7437 193.535C48.6562 191.625 54.45 191.344 57.2062 193.029ZM84.2625 193.029C86.85 193.76 85.2187 197.748 82.35 197.748C81.2812 197.748 81 197.467 81 196.288C81 194.771 81.9 192.692 82.575 192.692C82.8 192.692 83.5312 192.861 84.2625 193.029ZM28.8562 193.984C30.7125 194.827 32.4562 196.456 31.8937 196.962C31.4437 197.411 26.2687 194.771 25.9875 193.928C25.7062 193.029 26.6062 193.086 28.8562 193.984ZM52.3125 199.771C62.6625 200.613 72.1687 200.613 83.5312 199.827C84.9937 199.715 85.2187 199.939 85.3875 201.344C85.5 202.243 85.3312 203.198 84.9937 203.535C84.5437 203.984 84.375 203.816 84.375 202.917C84.375 201.456 83.9812 201.344 82.6312 202.58C81.675 203.422 81.45 203.422 79.425 202.355C77.4562 201.344 77.0625 201.288 76.05 202.018C75.3187 202.523 74.7562 203.759 74.475 205.332C74.1375 207.636 73.9687 207.86 72.9 207.523C72.2812 207.299 68.4 207.186 64.2937 207.242C60.1875 207.299 55.7437 207.018 54.3375 206.681C51.975 206.119 51.8062 205.95 51.6375 204.04C51.4125 201.288 49.6687 200.782 49.1625 203.31L48.7687 205.052L46.7437 203.872C45.6187 203.198 44.0437 202.692 43.2562 202.692C42.075 202.804 41.6812 202.523 41.4 201.4C41.175 200.557 40.6687 199.995 39.9937 199.995C39.4312 199.995 38.6437 199.602 38.25 199.153C37.6312 198.422 37.8 198.366 39.15 198.591C40.05 198.76 45.9562 199.265 52.3125 199.771ZM99 201.344C99 204.771 98.6625 205.052 94.725 205.052H92.25V202.186C92.25 198.872 93.4875 198.535 93.9375 201.737C94.1062 202.973 94.5562 203.703 95.2312 203.816C96.0187 203.984 96.1875 203.591 96.1875 201.175C96.1875 198.479 96.3 198.31 97.5937 198.31C98.9437 198.31 99 198.479 99 201.344ZM584.438 201.568C584.438 202.411 583.031 205.613 581.344 208.703C578.925 213.141 578.25 213.984 578.25 212.748C578.25 211.849 579.375 208.984 580.781 206.344C582.188 203.703 583.313 201.063 583.313 200.445C583.313 199.883 583.594 199.546 583.875 199.715C584.213 199.883 584.438 200.726 584.438 201.568ZM112.275 207.018C113.287 209.433 113.287 210.108 112.219 210.108C111.431 210.108 110.25 213.254 110.25 215.332C110.25 215.894 110.025 216.175 109.687 216.006C109.406 215.838 109.125 215.22 109.125 214.658C109.125 214.096 108.787 213.366 108.394 213.029C107.212 212.018 106.031 213.254 106.031 215.501C106.031 216.68 105.694 217.692 105.356 217.804C104.906 217.973 104.625 217.523 104.625 216.68C104.625 213.984 104.119 213.422 102.488 214.209C101.644 214.658 100.519 214.883 100.012 214.77C99.1687 214.546 99 214.939 99 216.961C99 218.31 98.775 219.714 98.4937 220.164C97.7625 221.343 96.75 220.388 96.75 218.478C96.75 217.579 96.6375 216.849 96.525 216.849C96.4125 216.849 95.9062 216.68 95.4 216.512C94.725 216.231 94.5 216.568 94.5 217.86C94.5 220.388 93.5437 220.557 92.3625 218.253C91.4625 216.456 91.2375 216.287 90.6187 217.074C89.55 218.366 85.6125 218.197 83.3625 216.849C81.0562 215.445 79.9875 213.31 80.9437 212.13C82.1812 210.613 87.3 209.096 95.4 207.86C99.7875 207.186 104.681 206.063 106.369 205.389C109.912 203.928 111.094 204.209 112.275 207.018ZM619.088 214.714C618.638 217.018 614.813 225.276 614.194 225.276C613.35 225.276 613.069 223.085 613.744 221.793C614.138 221.062 615.375 219.152 616.556 217.467C617.794 215.782 618.75 214.096 618.75 213.647C618.75 213.254 618.919 212.917 619.088 212.917C619.313 212.917 619.313 213.759 619.088 214.714ZM459.844 245.725C460.631 246.23 462.375 248.365 463.725 250.444C466.031 254.039 469.125 257.298 470.306 257.298C470.588 257.298 470.813 257.522 470.813 257.747C470.813 258.477 461.813 264.994 448.988 273.533C429.975 286.229 425.194 290.443 416.363 302.128C410.794 309.487 407.644 312.914 406.519 312.914C405.281 312.914 402.975 315.835 401.288 319.375C400.163 321.79 398.194 324.318 394.256 328.307C391.219 331.341 388.519 333.644 388.238 333.476C387.394 332.97 385.65 335.329 383.063 340.329C380.025 346.228 379.294 346.677 376.538 344.262C373.669 341.734 372.375 338.7 372.375 334.262C372.375 330.049 372.994 327.577 375.3 322.296C376.988 318.364 381.769 310.105 382.331 310.105C383.231 310.105 381.6 314.262 379.181 318.251C376.481 322.633 374.794 326.734 375.356 327.352C375.694 327.689 377.156 325.442 381.544 317.97C383.231 315.049 385.031 312.128 385.538 311.51L386.381 310.386L386.438 311.51C386.438 312.97 383.85 318.42 381.15 322.633C379.069 325.891 379.013 326.285 380.363 328.195C380.869 328.925 380.925 329.992 380.419 332.689C380.081 334.655 379.631 336.734 379.35 337.352C379.013 338.307 379.125 338.307 380.531 337.071C382.05 335.723 394.538 317.408 393.919 317.408C393.75 317.408 392.4 318.757 390.825 320.33L388.013 323.307L388.35 321.397C388.519 320.386 389.138 318.981 389.644 318.251C394.594 311.903 395.494 310.611 395.325 310.105C394.931 308.813 389.981 314.094 387 319.038C385.313 321.847 383.85 323.757 383.738 323.307C383.4 321.847 386.213 316.566 390.263 310.836C394.481 304.881 395.663 302.858 395.269 302.409C394.706 301.847 393.075 303.195 391.781 305.386C390.769 307.015 390.431 307.296 390.375 306.454C390.375 304.881 391.95 302.465 395.719 298.364C398.813 295.106 399.038 294.656 399.038 292.072C399.094 289.319 399.15 289.207 403.313 285.555C405.619 283.477 410.681 278.758 414.563 274.994C434.419 255.837 444.375 247.803 451.519 245.163C454.106 244.208 457.931 244.489 459.844 245.725ZM393.131 297.858C391.95 300.106 385.594 307.802 385.425 307.296C385.031 306.285 386.944 303.364 390.206 299.768C393.581 296.061 394.369 295.555 393.131 297.858ZM360 401.002C360 402.013 356.456 409.485 355.95 409.541C354.881 409.597 355.669 405.272 357.244 402.126C358.538 399.598 359.1 398.867 359.494 399.485C359.775 399.935 360 400.609 360 401.002Z" fill="#00023D"/>
<path d="M323.606 33.7634C321.581 34.3814 319.781 36.6285 320.287 37.9206C320.512 38.5947 320.85 38.6509 322.144 38.0891C323.044 37.7521 326.531 37.5273 330.075 37.5273C333.506 37.5835 336.375 37.3588 336.375 37.1341C336.375 36.4038 333.9 34.3814 332.269 33.7634C330.356 33.0331 326.137 33.0331 323.606 33.7634Z" fill="#00023D"/>
<path d="M305.494 67.0209C304.706 71.6837 304.706 72.6949 305.663 74.9982C307.463 79.2116 308.925 76.6274 309.038 69.3242C309.094 66.6276 308.869 65.5603 308.025 64.6614C307.406 63.9873 306.788 63.4816 306.506 63.4816C306.281 63.4816 305.831 65.0546 305.494 67.0209Z" fill="#00023D"/>
<path d="M293.231 78.9869C291.713 79.7734 289.688 82.7508 290.306 83.425C290.419 83.5373 292.669 83.1441 295.256 82.5261C299.7 81.5149 303.188 79.9981 303.188 79.1554C303.188 77.8071 295.819 77.6948 293.231 78.9869Z" fill="#00023D"/>
<path d="M292.894 97.1888C290.869 97.8067 289.688 98.7618 289.688 99.8853C289.688 101.234 294.694 100.447 295.988 98.8741C297.675 96.7955 296.438 96.1214 292.894 97.1888Z" fill="#00023D"/>
<path d="M288.9 108.087C287.719 108.537 286.313 109.323 285.806 109.885C284.963 110.728 285.075 110.784 287.1 110.503C288.394 110.278 290.025 110.447 291.15 110.952C292.781 111.627 293.231 111.57 295.144 110.615C296.944 109.66 297.956 109.548 301.5 109.829C304.763 110.11 305.944 109.997 306.844 109.379C307.463 108.874 307.8 108.368 307.575 108.144C307.35 107.919 303.581 107.638 299.138 107.526C293.006 107.301 290.588 107.469 288.9 108.087Z" fill="#00023D"/>
<path d="M298.125 118.593C295.144 119.829 293.231 120.222 291.431 120.11C289.856 119.997 288.844 120.166 288.731 120.615C288.338 121.683 291.038 122.469 294.975 122.469C298.913 122.469 303.863 120.391 305.325 118.087C306.113 116.908 306.056 116.851 304.256 116.851C303.188 116.851 300.431 117.638 298.125 118.593Z" fill="#00023D"/>
<path d="M363.038 175.895C362.869 176.232 362.925 176.738 363.206 177.018C363.431 177.243 367.988 178.423 373.219 179.49C382.556 181.513 389.7 182.131 392.513 181.232C395.831 180.164 391.613 178.198 385.875 178.086C383.681 178.086 381.319 177.636 379.969 177.075C378.281 176.288 377.381 176.176 376.256 176.569C375.188 177.018 373.444 176.906 370.069 176.232C364.5 175.108 363.544 175.052 363.038 175.895Z" fill="#00023D"/>
<path d="M343.181 181.569C342.169 184.827 338.4 192.243 335.7 196.175C333.45 199.546 333.563 200.051 336.319 198.647C340.481 196.456 344.869 188.703 344.925 183.423C344.981 179.322 344.081 178.423 343.181 181.569Z" fill="#00023D"/>
<path d="M314.887 205.669C314.325 205.95 313.875 206.849 313.875 207.579C313.875 208.815 314.1 208.984 316.012 208.984C317.812 208.984 318.319 208.703 318.881 207.467C319.444 206.287 319.387 205.894 318.825 205.557C317.812 204.883 316.069 204.939 314.887 205.669Z" fill="#00023D"/>
<path d="M394.144 211.624C393.3 212.411 393.863 214.49 395.663 217.13C399.206 222.467 407.813 239.264 407.813 240.95C407.813 244.433 409.5 245.612 410.681 243.028C411.525 241.23 411.019 238.702 408.881 234.264C407.869 232.242 405.9 227.467 404.381 223.647C401.4 216.006 399.319 212.523 397.238 211.737C395.663 211.119 394.65 211.119 394.144 211.624Z" fill="#00023D"/>
<path d="M401.906 257.522C400.05 259.376 398.419 260.219 393.581 261.96C390.262 263.14 386.212 264.882 384.581 265.837C380.306 268.309 379.294 268.702 374.737 269.095C371.531 269.376 370.35 269.769 369.394 270.724L368.156 272.016L373.781 271.735C376.875 271.567 380.925 271.005 382.781 270.556C386.831 269.432 393.3 266.455 396.956 263.983C399.825 262.073 406.125 256.23 406.125 255.5C406.125 254.376 403.931 255.444 401.906 257.522Z" fill="#00023D"/>
<path d="M161.213 124.604C157.725 125.784 155.925 127.974 156.713 130.109C157.556 132.637 160.988 134.941 164.194 135.278C166.781 135.502 167.175 135.39 168.75 133.817C170.1 132.413 170.438 131.626 170.438 129.604C170.438 126.233 170.044 125.39 168.131 124.435C166.106 123.368 164.644 123.424 161.213 124.604Z" fill="#00023D"/>
<path d="M92.4187 161.176C89.8312 162.356 88.5375 164.041 87.975 166.738C87.3 170.221 90.7312 172.468 96.6937 172.468C100.519 172.468 100.687 172.412 101.081 170.895C101.7 168.76 101.475 161.794 100.8 161.12C99.6187 159.94 94.95 159.996 92.4187 161.176Z" fill="#00023D"/>
<path d="M330.525 104.604C329.231 106.402 329.4 108.144 331.031 109.941L332.381 111.514L332.438 107.413C332.438 103.2 331.988 102.526 330.525 104.604Z" fill="#00023D"/>
<path d="M622.012 95.3348C615.656 108.481 612.619 115.166 606.037 130.671C598.725 148.086 599.175 146.738 601.594 144.379C604.294 141.794 606.825 137.188 609.975 128.93C613.294 120.39 614.194 118.424 621.675 101.964C625.106 94.6045 627.919 87.9193 627.919 87.1328C628.144 83.7621 626.456 86.0654 622.012 95.3348Z" fill="#00023D"/>
<path d="M596.419 152.918C595.519 154.098 577.856 191.007 572.006 203.872C570.544 207.018 570.488 207.355 571.556 206.456C574.763 203.535 579.769 194.378 588.656 175.052C593.775 163.929 595.406 160.109 596.531 156.457C596.925 155.221 597.431 153.761 597.656 153.199C598.106 152.075 597.206 151.907 596.419 152.918Z" fill="#00023D"/>
<path d="M117.563 120.166C116.156 120.559 114.188 123.256 114.806 123.874C115.031 124.042 115.819 123.874 116.663 123.537C117.9 122.975 118.463 123.031 120.094 123.93C121.838 124.885 122.175 124.885 122.625 124.155C123.244 123.199 123.356 121.795 122.85 120.559C122.513 119.604 120.15 119.436 117.563 120.166Z" fill="#00023D"/>
<path d="M700.369 28.7634C700.369 30.6735 700.763 33.5386 701.156 35.1116C701.888 37.8643 701.888 37.8081 701.775 31.797C701.719 27.4151 701.494 25.5612 701.044 25.3927C700.481 25.2242 700.313 26.123 700.369 28.7634Z" fill="#00023D"/>
<path d="M660.544 27.8646C659.756 29.8309 660.206 52.2461 661.05 52.2461C662.625 52.2461 662.963 48.2012 662.513 36.0105C662.175 28.2579 661.5 25.5051 660.544 27.8646Z" fill="#00023D"/>
<path d="M665.831 28.3701C665.1 31.46 664.369 38.4261 664.313 42.6957C664.313 46.2349 664.425 46.7405 665.1 46.0664C667.013 43.9878 667.575 38.3699 666.619 30.0555C666.281 27.1342 666.169 26.9095 665.831 28.3701Z" fill="#00023D"/>
<path d="M698.794 116.851C697.219 117.525 696.319 119.155 695.475 123.368C694.575 127.581 689.625 138.087 681.638 152.805C678.375 158.817 675.394 164.884 675 166.288C673.931 170.445 671.681 176.232 667.688 184.827C665.606 189.321 663.356 194.434 662.738 196.175L661.5 199.434H662.794C665.044 199.434 666.394 197.973 667.125 194.827C668.306 189.434 668.081 189.771 669.938 191.063C670.781 191.737 671.794 192.187 672.131 192.074C672.525 191.906 674.381 188.198 676.238 183.704C678.15 179.209 684.506 166.007 690.3 154.322C696.094 142.637 700.875 132.974 700.875 132.806C700.875 132.188 698.625 132.694 697.556 133.536C696.938 134.098 694.463 138.817 692.156 144.098C685.744 158.479 680.85 167.974 678.713 170.502L676.744 172.749L678.6 167.693C680.85 161.738 683.775 155.221 690.694 140.783C695.644 130.559 700.875 118.312 700.875 116.964C700.875 116.177 700.481 116.177 698.794 116.851Z" fill="#00023D"/>
<path d="M699.581 142.918C698.175 144.042 696.094 148.086 692.213 157.581C689.681 163.816 687.769 167.468 684.956 171.513C682.819 174.49 680.738 177.861 680.288 178.928C679.388 181.063 679.219 184.827 680.006 184.827C680.681 184.827 684.113 180.164 685.631 177.131C686.306 175.782 687.994 172.018 689.4 168.76C693.169 159.884 697.838 153.086 695.813 159.378C695.419 160.558 694.013 163.648 692.719 166.288C689.906 171.962 689.344 173.985 690.188 176.119L690.806 177.692L692.213 176.344C695.138 173.648 697.219 169.097 699.188 161.232C700.256 157.075 700.256 157.019 699.188 155.895C697.894 154.547 698.119 153.142 700.538 148.48C702.169 145.165 702.281 144.435 701.325 143.087C700.706 142.3 700.425 142.3 699.581 142.918Z" fill="#00023D"/>
<path d="M465.356 273.252C463.725 274.039 460.012 276.904 456.525 280.106C453.206 283.14 450.056 285.948 449.437 286.342C448.819 286.791 448.312 287.634 448.312 288.308C448.312 288.926 447.3 290.499 446.006 291.735C442.969 294.769 442.125 296.061 442.125 297.577C442.125 300.274 444.937 298.195 446.625 294.263C447.694 291.735 449.437 289.881 457.537 282.409C462.825 277.522 467.55 273.308 468 273.027C469.856 271.904 468 272.072 465.356 273.252Z" fill="#00023D"/>
<path d="M466.313 279.6C458.55 285.78 447.356 296.398 447.919 297.016C448.088 297.128 449.438 296.735 450.956 296.061C452.925 295.218 455.794 292.746 461.813 286.566C468.113 280.162 470.644 277.915 472.95 276.904C475.2 275.836 475.875 275.275 475.875 274.32C475.875 273.589 475.538 273.027 475.2 273.084C474.806 273.084 470.813 276.061 466.313 279.6Z" fill="#00023D"/>
<path d="M450.225 279.825C449.663 280.499 447.806 281.904 446.231 282.971C444.6 283.982 443.25 285.106 443.25 285.443C443.25 285.724 440.494 288.701 437.175 292.016C433.8 295.33 430.763 298.869 430.369 299.825C429.638 301.678 429.806 303.364 430.819 303.364C431.438 303.364 435.038 299.15 441.225 291.285C443.531 288.364 446.569 285.274 448.706 283.757C451.238 281.904 452.25 280.836 452.25 279.937C452.25 278.308 451.631 278.308 450.225 279.825Z" fill="#00023D"/>
<path d="M473.175 279.994C472.838 280.78 470.588 283.027 468.169 284.994C465.75 287.016 463.331 289.432 462.769 290.387L461.756 292.128H464.288C465.638 292.128 467.156 292.297 467.663 292.465C468.281 292.69 468.563 292.521 468.563 291.903C468.563 290.162 470.363 287.409 473.963 283.533C475.931 281.454 477.563 279.488 477.563 279.207C477.563 278.87 476.719 278.645 475.706 278.645C474.244 278.645 473.681 278.982 473.175 279.994Z" fill="#00023D"/>
<path d="M420.581 307.914C417.825 309.375 414.281 313.026 413.494 315.161C412.763 317.296 413.213 317.296 416.138 315.105C418.444 313.42 418.556 313.42 419.906 314.262C421.313 315.217 421.313 315.217 422.438 312.633C423.563 310.049 423.956 306.734 423.169 306.734C422.888 306.791 421.763 307.296 420.581 307.914Z" fill="#00023D"/>
<path d="M408.319 320.948C407.813 321.341 406.744 322.689 405.956 323.981C405.113 325.273 403.706 326.903 402.75 327.577C401.85 328.307 401.063 329.262 401.063 329.768C401.063 330.329 400.388 331.734 399.544 332.914C398.756 334.093 397.463 335.947 396.731 337.015C395.438 338.869 394.931 342.127 395.944 342.127C397.013 342.127 400.894 337.071 404.438 331.116C406.406 327.745 408.881 324.094 409.894 322.97C410.906 321.847 411.581 320.779 411.356 320.554C410.794 319.993 409.331 320.161 408.319 320.948Z" fill="#00023D"/>
<path d="M384.188 367.913C384.188 369.093 381.994 372.576 379.631 375.048C378.731 375.946 377.269 378.643 376.369 380.946C375.469 383.306 372.15 390.328 369 396.62C363.544 407.463 359.438 417.968 359.438 420.833V422.181L360.562 420.777C361.125 419.99 362.025 417.912 362.531 416.17C363.038 414.373 366.3 407.126 369.788 399.991C373.331 392.856 376.65 385.609 377.156 383.811C377.775 381.958 379.069 379.598 380.25 378.194C382.725 375.385 386.663 368.194 386.156 367.407C385.538 366.452 384.188 366.789 384.188 367.913Z" fill="#00023D"/>
<path d="M379.294 388.643C374.906 395.946 370.237 404.204 368.831 407.013C365.85 413.08 362.025 423.024 362.531 423.53C363.206 424.148 365.456 420.721 367.031 416.62C370.8 406.957 380.531 389.092 386.606 380.722C389.194 377.126 389.7 375.272 388.012 375.272C387.619 375.272 383.681 381.283 379.294 388.643Z" fill="#00023D"/>
<path d="M386.888 386.957C386.1 387.8 384.75 389.71 383.85 391.283C382.95 392.8 379.8 398.081 376.819 402.968C373.781 407.856 370.631 413.642 369.788 415.889C368.944 418.137 367.481 421.002 366.581 422.238C365.175 424.316 365.063 424.766 365.625 425.889C366.3 427.069 366.581 426.676 369.844 419.878C373.444 412.294 375.75 408.081 383.85 394.148C386.494 389.542 388.631 385.665 388.519 385.609C388.406 385.497 387.675 386.115 386.888 386.957Z" fill="#00023D"/>
<path d="M388.856 393.081C387.281 395.496 384.019 400.89 381.6 405.047C379.181 409.204 375.919 414.766 374.344 417.406C372.488 420.44 371.419 422.855 371.363 424.035C371.363 425.046 370.8 426.732 370.125 427.855C368.831 429.934 368.944 431.451 370.406 431.451C371.925 431.451 376.594 426.282 379.35 421.563C380.813 419.148 383.4 414.204 385.144 410.665C388.969 402.687 392.175 397.069 394.65 393.98C396.731 391.452 396.956 390.89 395.775 391.339C394.988 391.62 393.188 390.216 393.188 389.261C393.188 387.688 391.388 389.261 388.856 393.081ZM389.869 396.451C389.306 397.968 387.056 402.238 384.919 406.002C382.838 409.766 379.744 415.271 378.113 418.361C376.031 422.237 375.244 423.305 375.525 421.957C376.144 418.586 378.788 412.799 382.219 407.294C384.019 404.373 386.663 399.991 388.013 397.575C389.419 395.216 390.656 393.305 390.769 393.418C390.881 393.586 390.488 394.935 389.869 396.451Z" fill="#00023D"/>
<path d="M397.969 397.07C397.181 397.182 396.169 398.643 394.763 401.564C393.581 403.923 390.375 409.036 387.563 412.912C380.081 423.249 376.706 430.72 376.931 436.451C376.988 437.743 377.1 437.63 377.888 435.664C379.913 430.496 387.225 417.013 393.131 407.406C396.619 401.732 399.431 397.07 399.319 397.013C399.206 396.901 398.588 396.957 397.969 397.07Z" fill="#00023D"/>
<path d="M398.7 403.586C398.138 403.979 397.688 404.541 397.688 404.766C397.688 404.991 396.563 406.845 395.213 408.923C393.863 410.946 391.556 414.99 390.15 417.856C388.688 420.777 385.875 425.496 383.906 428.361C380.081 433.923 379.181 436.563 380.081 439.484L380.644 441.282L381.994 438.192C386.55 427.406 394.144 413.867 399.825 406.451C401.063 404.822 401.4 404.036 400.95 403.53C400.219 402.631 399.938 402.631 398.7 403.586Z" fill="#00023D"/>
<path d="M395.325 420.946C386.888 434.597 382.388 443.305 383.288 444.26C383.85 444.821 389.025 436.9 392.4 430.215C396.338 422.519 399.038 418.193 401.85 415.271C403.2 413.811 403.425 413.249 402.975 412.519C402.638 412.013 402.131 411.508 401.85 411.395C401.569 411.339 398.644 415.609 395.325 420.946Z" fill="#00023D"/>
<path d="M400.5 422.294C399.544 423.08 397.631 425.945 396.281 428.698C394.931 431.451 393.019 434.822 392.062 436.226C389.925 439.372 387.337 444.878 387.787 445.327C388.406 445.945 390.769 443.248 391.781 440.833C394.706 433.923 395.55 432.574 398.7 429.091C400.612 426.957 402.694 424.26 403.312 423.024C404.437 420.833 404.437 420.777 403.369 420.777C402.75 420.777 401.456 421.451 400.5 422.294Z" fill="#00023D"/>
<path d="M398.306 437.574C393.356 446.338 391.444 452.405 394.875 448.36C396.169 446.844 403.312 433.305 403.312 432.35C403.312 432.237 402.975 432.012 402.525 431.844C401.962 431.619 400.669 433.361 398.306 437.574Z" fill="#00023D"/>
<path d="M403.088 439.597C402.863 440.383 401.963 442.237 401.119 443.698C399.15 446.844 398.531 449.035 399.206 450.271C399.656 451.057 400.05 450.776 401.513 448.473C403.481 445.383 406.125 439.934 406.125 438.866C406.125 438.529 405.506 438.192 404.775 438.192C403.819 438.192 403.313 438.586 403.088 439.597Z" fill="#00023D"/>
</g>
<defs>
<clipPath id="clip0_89_83">
<rect width="720" height="491" fill="white"/>
</clipPath>
</defs>
</svg>
