<svg width="48" height="46" viewBox="0 0 48 46" fill="none" xmlns="http://www.w3.org/2000/svg">
<g filter="url(#filter0_d_77_229)">
<path d="M37.7438 6.26675C33.8146 2.3355 28.5896 0.168831 23.0229 0.166748C11.5521 0.166748 2.21669 9.498 2.21252 20.9688C2.21044 24.6355 3.16877 28.2147 4.9896 31.3688L2.16669 41.8334L13.0688 39.2563C16.1084 40.9147 19.5292 41.7876 23.0125 41.7897H23.0209C34.4896 41.7897 43.825 32.4563 43.8313 20.9876C43.8354 15.4272 41.6729 10.2001 37.7438 6.26675ZM33.2042 28.4042C32.7709 29.6188 30.6479 30.7897 29.6938 30.8751C28.7396 30.9626 27.8459 31.3063 23.4542 29.5751C18.1688 27.4917 14.8313 22.073 14.5729 21.7272C14.3125 21.3792 12.45 18.9084 12.45 16.3501C12.45 13.7917 13.7938 12.5334 14.2709 12.0147C14.7479 11.4938 15.3104 11.3647 15.6584 11.3647C16.0042 11.3647 16.3521 11.3647 16.6542 11.3772C17.025 11.3917 17.4354 11.4105 17.825 12.2751C18.2875 13.3042 19.2979 15.8751 19.4271 16.1355C19.5563 16.3959 19.6438 16.7001 19.4709 17.0459C19.2979 17.3917 19.2104 17.6084 18.9521 17.9126C18.6917 18.2167 18.4063 18.5897 18.1729 18.823C17.9125 19.0813 17.6417 19.3647 17.9438 19.8834C18.2479 20.4042 19.2896 22.1063 20.8354 23.4834C22.8229 25.2542 24.4959 25.8022 25.0167 26.0647C25.5375 26.3251 25.8396 26.2813 26.1438 25.9334C26.4479 25.5876 27.4438 24.4167 27.7896 23.8959C28.1354 23.3751 28.4834 23.4626 28.9604 23.6355C29.4375 23.8084 31.9938 25.0667 32.5125 25.3272C33.0334 25.5876 33.3792 25.7167 33.5084 25.9334C33.6375 26.148 33.6375 27.1897 33.2042 28.4042Z" fill="black"/>
</g>
<defs>
<filter id="filter0_d_77_229" x="0.166687" y="0.166748" width="49.6646" height="49.6667" filterUnits="userSpaceOnUse" color-interpolation-filters="sRGB">
<feFlood flood-opacity="0" result="BackgroundImageFix"/>
<feColorMatrix in="SourceAlpha" type="matrix" values="0 0 0 0 0 0 0 0 0 0 0 0 0 0 0 0 0 0 127 0" result="hardAlpha"/>
<feOffset dx="2" dy="4"/>
<feGaussianBlur stdDeviation="2"/>
<feComposite in2="hardAlpha" operator="out"/>
<feColorMatrix type="matrix" values="0 0 0 0 0 0 0 0 0 0 0 0 0 0 0 0 0 0 0.25 0"/>
<feBlend mode="normal" in2="BackgroundImageFix" result="effect1_dropShadow_77_229"/>
<feBlend mode="normal" in="SourceGraphic" in2="effect1_dropShadow_77_229" result="shape"/>
</filter>
</defs>
</svg>
